<svg width="196" height="120" viewBox="0 0 196 120" fill="none" xmlns="http://www.w3.org/2000/svg">
<rect width="196" height="120" rx="20" fill="#242424"/>
<path d="M74.8134 39.7656H70.4583C70.3787 39.2022 70.2163 38.7017 69.9711 38.2642C69.7258 37.8201 69.4109 37.4422 69.0265 37.1307C68.642 36.8191 68.1979 36.5805 67.6941 36.4148C67.1969 36.2491 66.6567 36.1662 66.0733 36.1662C65.0194 36.1662 64.1013 36.428 63.3191 36.9517C62.5369 37.4687 61.9303 38.2244 61.4995 39.2188C61.0686 40.2064 60.8532 41.4062 60.8532 42.8182C60.8532 44.2699 61.0686 45.4896 61.4995 46.4773C61.937 47.465 62.5468 48.2107 63.329 48.7145C64.1112 49.2183 65.016 49.4702 66.0435 49.4702C66.6202 49.4702 67.1538 49.3939 67.6444 49.2415C68.1415 49.089 68.5823 48.867 68.9668 48.5753C69.3513 48.277 69.6694 47.9157 69.9213 47.4915C70.1799 47.0672 70.3588 46.5833 70.4583 46.0398L74.8134 46.0597C74.7007 46.9943 74.419 47.8958 73.9682 48.7642C73.5241 49.6259 72.9242 50.3982 72.1685 51.081C71.4194 51.7571 70.5246 52.294 69.4838 52.6918C68.4498 53.0829 67.2798 53.2784 65.9739 53.2784C64.1576 53.2784 62.5336 52.8674 61.1017 52.0455C59.6766 51.2235 58.5497 50.0336 57.7211 48.4759C56.8991 46.9181 56.4881 45.0322 56.4881 42.8182C56.4881 40.5975 56.9057 38.7083 57.7409 37.1506C58.5762 35.5928 59.7097 34.4062 61.1415 33.5909C62.5733 32.7689 64.1841 32.358 65.9739 32.358C67.1538 32.358 68.2476 32.5237 69.2551 32.8551C70.2694 33.1866 71.1676 33.6705 71.9498 34.3068C72.7319 34.9366 73.3683 35.7088 73.8588 36.6236C74.356 37.5384 74.6742 38.5857 74.8134 39.7656ZM77.8212 53V37.7273H81.9277V40.392H82.0868C82.3652 39.4441 82.8326 38.7282 83.4888 38.2443C84.1451 37.7538 84.9007 37.5085 85.7559 37.5085C85.968 37.5085 86.1967 37.5218 86.4419 37.5483C86.6872 37.5748 86.9026 37.6113 87.0882 37.6577V41.4162C86.8894 41.3565 86.6143 41.3035 86.263 41.2571C85.9116 41.2107 85.5901 41.1875 85.2985 41.1875C84.6754 41.1875 84.1185 41.3234 83.628 41.5952C83.1441 41.8603 82.7596 42.2315 82.4746 42.7088C82.1962 43.1861 82.057 43.7363 82.057 44.3594V53H77.8212ZM95.5275 53.2983C93.9565 53.2983 92.6042 52.9801 91.4707 52.3438C90.3438 51.7008 89.4754 50.7926 88.8656 49.6193C88.2557 48.4394 87.9508 47.044 87.9508 45.4332C87.9508 43.8622 88.2557 42.4834 88.8656 41.2969C89.4754 40.1103 90.3339 39.1856 91.4409 38.5227C92.5545 37.8598 93.8604 37.5284 95.3585 37.5284C96.3661 37.5284 97.304 37.6908 98.1724 38.0156C99.0474 38.3338 99.8097 38.8144 100.459 39.4574C101.116 40.1004 101.626 40.9091 101.991 41.8835C102.355 42.8513 102.537 43.9848 102.537 45.2841V46.4474H89.6412V43.8224H98.5502C98.5502 43.2126 98.4177 42.6723 98.1525 42.2017C97.8874 41.7311 97.5195 41.3632 97.0488 41.098C96.5848 40.8262 96.0446 40.6903 95.4281 40.6903C94.7851 40.6903 94.215 40.8395 93.7179 41.1378C93.2273 41.4295 92.8429 41.8239 92.5645 42.321C92.286 42.8116 92.1435 43.3584 92.1369 43.9616V46.4574C92.1369 47.2131 92.2761 47.866 92.5545 48.4162C92.8395 48.9664 93.2406 49.3906 93.7576 49.6889C94.2747 49.9872 94.8878 50.1364 95.5971 50.1364C96.0678 50.1364 96.4986 50.0701 96.8897 49.9375C97.2808 49.8049 97.6156 49.6061 97.894 49.3409C98.1724 49.0758 98.3845 48.7509 98.5304 48.3665L102.448 48.625C102.249 49.5663 101.841 50.3883 101.225 51.0909C100.615 51.7869 99.8263 52.3305 98.8585 52.7216C97.8973 53.1061 96.787 53.2983 95.5275 53.2983ZM110.93 53.2486C109.769 53.2486 108.719 52.9503 107.778 52.3537C106.843 51.7505 106.1 50.8655 105.55 49.6989C105.007 48.5256 104.735 47.0871 104.735 45.3835C104.735 43.6335 105.017 42.1785 105.58 41.0185C106.144 39.8518 106.893 38.9801 107.827 38.4034C108.769 37.8201 109.799 37.5284 110.92 37.5284C111.775 37.5284 112.487 37.6742 113.057 37.9659C113.634 38.2509 114.098 38.6089 114.449 39.0398C114.807 39.464 115.079 39.8816 115.265 40.2926H115.394V32.6364H119.62V53H115.444V50.554H115.265C115.066 50.9782 114.784 51.3991 114.42 51.8168C114.062 52.2277 113.594 52.5691 113.018 52.8409C112.448 53.1127 111.751 53.2486 110.93 53.2486ZM112.272 49.8778C112.955 49.8778 113.531 49.6922 114.002 49.321C114.479 48.9432 114.844 48.4162 115.096 47.7401C115.354 47.0639 115.483 46.2718 115.483 45.3636C115.483 44.4555 115.358 43.6667 115.106 42.9972C114.854 42.3277 114.489 41.8106 114.012 41.446C113.535 41.0814 112.955 40.8991 112.272 40.8991C111.576 40.8991 110.989 41.0881 110.512 41.4659C110.035 41.8437 109.673 42.3674 109.428 43.0369C109.183 43.7064 109.06 44.482 109.06 45.3636C109.06 46.2519 109.183 47.0374 109.428 47.7202C109.68 48.3963 110.041 48.9266 110.512 49.3111C110.989 49.6889 111.576 49.8778 112.272 49.8778ZM123.102 53V37.7273H127.338V53H123.102ZM125.23 35.7585C124.601 35.7585 124.06 35.5497 123.61 35.1321C123.165 34.7079 122.943 34.2008 122.943 33.6108C122.943 33.0275 123.165 32.527 123.61 32.1094C124.06 31.6851 124.601 31.473 125.23 31.473C125.86 31.473 126.397 31.6851 126.841 32.1094C127.292 32.527 127.517 33.0275 127.517 33.6108C127.517 34.2008 127.292 34.7079 126.841 35.1321C126.397 35.5497 125.86 35.7585 125.23 35.7585ZM138.855 37.7273V40.9091H129.657V37.7273H138.855ZM131.746 34.0682H135.981V48.3068C135.981 48.6979 136.041 49.0028 136.16 49.2216C136.28 49.4337 136.445 49.5829 136.657 49.669C136.876 49.7552 137.128 49.7983 137.413 49.7983C137.612 49.7983 137.811 49.7817 138.01 49.7486C138.209 49.7088 138.361 49.679 138.467 49.6591L139.133 52.8111C138.921 52.8774 138.623 52.9536 138.238 53.0398C137.854 53.1326 137.387 53.1889 136.836 53.2088C135.816 53.2486 134.921 53.1127 134.152 52.8011C133.39 52.4896 132.796 52.0057 132.372 51.3494C131.948 50.6932 131.739 49.8646 131.746 48.8636V34.0682ZM70.6 72.4929C70.5204 71.6908 70.179 71.0677 69.5758 70.6236C68.9726 70.1794 68.1539 69.9574 67.1199 69.9574C66.4172 69.9574 65.8239 70.0568 65.34 70.2557C64.8561 70.4479 64.4849 70.7164 64.2264 71.0611C63.9745 71.4058 63.8485 71.7969 63.8485 72.2344C63.8353 72.599 63.9115 72.9171 64.0772 73.1889C64.2496 73.4607 64.4849 73.696 64.7832 73.8949C65.0815 74.0871 65.4262 74.2562 65.8173 74.402C66.2084 74.5412 66.626 74.6605 67.0701 74.7599L68.8997 75.1974C69.7879 75.3963 70.6033 75.6615 71.3457 75.9929C72.0881 76.3243 72.7311 76.732 73.2747 77.2159C73.8182 77.6998 74.2392 78.2699 74.5375 78.9261C74.8424 79.5824 74.9982 80.3348 75.0048 81.1832C74.9982 82.4295 74.68 83.5099 74.0502 84.4247C73.4271 85.3329 72.5256 86.0388 71.3457 86.5426C70.1724 87.0398 68.7572 87.2884 67.1 87.2884C65.456 87.2884 64.0242 87.0365 62.8045 86.5327C61.5914 86.0289 60.6435 85.2831 59.9608 84.2955C59.2846 83.3011 58.93 82.0715 58.8968 80.6065H63.063C63.1094 81.2893 63.305 81.8594 63.6497 82.3168C64.001 82.7675 64.4683 83.1089 65.0517 83.3409C65.6416 83.5663 66.3078 83.679 67.0502 83.679C67.7794 83.679 68.4125 83.5729 68.9494 83.3608C69.493 83.1487 69.9139 82.8537 70.2122 82.4759C70.5105 82.098 70.6596 81.6638 70.6596 81.1733C70.6596 80.7159 70.5237 80.3314 70.252 80.0199C69.9868 79.7083 69.5957 79.4432 69.0787 79.2244C68.5682 79.0057 67.9418 78.8068 67.1994 78.6278L64.9821 78.071C63.2652 77.6534 61.9096 77.0005 60.9153 76.1122C59.921 75.224 59.4271 74.0275 59.4338 72.5227C59.4271 71.2898 59.7553 70.2126 60.4181 69.2912C61.0877 68.3698 62.0057 67.6506 63.1724 67.1335C64.3391 66.6165 65.6648 66.358 67.1497 66.358C68.661 66.358 69.9802 66.6165 71.1071 67.1335C72.2406 67.6506 73.1222 68.3698 73.752 69.2912C74.3817 70.2126 74.7065 71.2798 74.7264 72.4929H70.6ZM84.7218 87.2983C83.1574 87.2983 81.8117 86.9669 80.6848 86.304C79.5646 85.6345 78.7028 84.7064 78.0996 83.5199C77.503 82.3333 77.2047 80.9678 77.2047 79.4233C77.2047 77.8589 77.5063 76.4867 78.1096 75.3068C78.7194 74.1203 79.5845 73.1955 80.7047 72.5327C81.825 71.8632 83.1574 71.5284 84.7019 71.5284C86.0343 71.5284 87.2009 71.7704 88.2019 72.2543C89.2028 72.7382 89.995 73.4176 90.5783 74.2926C91.1616 75.1676 91.4831 76.1951 91.5428 77.375H87.5456C87.4329 76.6127 87.1346 75.9995 86.6507 75.5355C86.1735 75.0649 85.5471 74.8295 84.7715 74.8295C84.1152 74.8295 83.5418 75.0085 83.0513 75.3665C82.5674 75.7178 82.1896 76.2315 81.9178 76.9077C81.646 77.5838 81.5101 78.4025 81.5101 79.3636C81.5101 80.3381 81.6427 81.1667 81.9078 81.8494C82.1796 82.5322 82.5608 83.0526 83.0513 83.4105C83.5418 83.7685 84.1152 83.9474 84.7715 83.9474C85.2554 83.9474 85.6896 83.848 86.074 83.6491C86.4651 83.4503 86.7866 83.1619 87.0385 82.7841C87.2971 82.3996 87.4661 81.9389 87.5456 81.402H91.5428C91.4765 82.5687 91.1583 83.5961 90.5882 84.4844C90.0248 85.366 89.2459 86.0554 88.2516 86.5526C87.2573 87.0497 86.0807 87.2983 84.7218 87.2983ZM101.155 87.2983C99.6109 87.2983 98.2752 86.9702 97.1483 86.3139C96.028 85.651 95.1629 84.7296 94.5531 83.5497C93.9432 82.3632 93.6383 80.9877 93.6383 79.4233C93.6383 77.8456 93.9432 76.4669 94.5531 75.2869C95.1629 74.1004 96.028 73.179 97.1483 72.5227C98.2752 71.8598 99.6109 71.5284 101.155 71.5284C102.7 71.5284 104.032 71.8598 105.153 72.5227C106.279 73.179 107.148 74.1004 107.758 75.2869C108.367 76.4669 108.672 77.8456 108.672 79.4233C108.672 80.9877 108.367 82.3632 107.758 83.5497C107.148 84.7296 106.279 85.651 105.153 86.3139C104.032 86.9702 102.7 87.2983 101.155 87.2983ZM101.175 84.017C101.878 84.017 102.465 83.8182 102.935 83.4205C103.406 83.0161 103.76 82.4659 103.999 81.7699C104.244 81.0739 104.367 80.2817 104.367 79.3935C104.367 78.5052 104.244 77.7131 103.999 77.017C103.76 76.321 103.406 75.7708 102.935 75.3665C102.465 74.9621 101.878 74.7599 101.175 74.7599C100.466 74.7599 99.8694 74.9621 99.3855 75.3665C98.9082 75.7708 98.5469 76.321 98.3017 77.017C98.063 77.7131 97.9437 78.5052 97.9437 79.3935C97.9437 80.2817 98.063 81.0739 98.3017 81.7699C98.5469 82.4659 98.9082 83.0161 99.3855 83.4205C99.8694 83.8182 100.466 84.017 101.175 84.017ZM111.427 87V71.7273H115.533V74.392H115.692C115.971 73.4441 116.438 72.7282 117.094 72.2443C117.751 71.7538 118.506 71.5085 119.361 71.5085C119.573 71.5085 119.802 71.5218 120.047 71.5483C120.293 71.5748 120.508 71.6113 120.694 71.6577V75.4162C120.495 75.3565 120.22 75.3035 119.868 75.2571C119.517 75.2107 119.196 75.1875 118.904 75.1875C118.281 75.1875 117.724 75.3234 117.233 75.5952C116.75 75.8603 116.365 76.2315 116.08 76.7088C115.802 77.1861 115.662 77.7363 115.662 78.3594V87H111.427ZM129.133 87.2983C127.562 87.2983 126.21 86.9801 125.076 86.3438C123.949 85.7008 123.081 84.7926 122.471 83.6193C121.861 82.4394 121.556 81.044 121.556 79.4332C121.556 77.8622 121.861 76.4834 122.471 75.2969C123.081 74.1103 123.939 73.1856 125.046 72.5227C126.16 71.8598 127.466 71.5284 128.964 71.5284C129.972 71.5284 130.91 71.6908 131.778 72.0156C132.653 72.3338 133.415 72.8144 134.065 73.4574C134.721 74.1004 135.231 74.9091 135.596 75.8835C135.961 76.8513 136.143 77.9848 136.143 79.2841V80.4474H123.247V77.8224H132.156C132.156 77.2126 132.023 76.6723 131.758 76.2017C131.493 75.7311 131.125 75.3632 130.654 75.098C130.19 74.8262 129.65 74.6903 129.034 74.6903C128.391 74.6903 127.82 74.8395 127.323 75.1378C126.833 75.4295 126.448 75.8239 126.17 76.321C125.892 76.8116 125.749 77.3584 125.742 77.9616V80.4574C125.742 81.2131 125.882 81.866 126.16 82.4162C126.445 82.9664 126.846 83.3906 127.363 83.6889C127.88 83.9872 128.493 84.1364 129.203 84.1364C129.673 84.1364 130.104 84.0701 130.495 83.9375C130.886 83.8049 131.221 83.6061 131.499 83.3409C131.778 83.0758 131.99 82.7509 132.136 82.3665L136.053 82.625C135.855 83.5663 135.447 84.3883 134.83 85.0909C134.221 85.7869 133.432 86.3305 132.464 86.7216C131.503 87.1061 130.392 87.2983 129.133 87.2983Z" fill="white"/>
</svg>
