<svg width="196" height="121" viewBox="0 0 196 121" fill="none" xmlns="http://www.w3.org/2000/svg">
<rect width="196" height="121" rx="20" fill="#242424"/>
<path d="M49.6072 52V32.596H62.5992V36.264H53.9752V40.324H61.6472V43.992H53.9752V52H49.6072ZM69.5773 52H65.4053V37.272H69.5773V52ZM69.9693 33.016C69.9693 33.7813 69.7173 34.388 69.2133 34.836C68.728 35.2653 68.1493 35.48 67.4773 35.48C66.8053 35.48 66.2173 35.2653 65.7133 34.836C65.228 34.388 64.9853 33.7813 64.9853 33.016C64.9853 32.2507 65.228 31.6533 65.7133 31.224C66.2173 30.776 66.8053 30.552 67.4773 30.552C68.1493 30.552 68.728 30.776 69.2133 31.224C69.7173 31.6533 69.9693 32.2507 69.9693 33.016ZM73.4991 37.776C74.2084 37.5707 75.1231 37.384 76.2431 37.216C77.3631 37.0293 78.5391 36.936 79.7711 36.936C81.0217 36.936 82.0577 37.104 82.8791 37.44C83.7191 37.7573 84.3817 38.2147 84.8671 38.812C85.3524 39.4093 85.6977 40.1187 85.9031 40.94C86.1084 41.7613 86.2111 42.676 86.2111 43.684V52H82.0391V44.188C82.0391 42.844 81.8617 41.892 81.5071 41.332C81.1524 40.772 80.4897 40.492 79.5191 40.492C79.2204 40.492 78.9031 40.5107 78.5671 40.548C78.2311 40.5667 77.9324 40.5947 77.6711 40.632V52H73.4991V37.776ZM95.6153 49.088C96.026 49.088 96.418 49.0787 96.7913 49.06C97.1647 49.0413 97.4633 49.0133 97.6873 48.976V45.812C97.5193 45.7747 97.2673 45.7373 96.9313 45.7C96.5953 45.6627 96.2873 45.644 96.0073 45.644C95.6153 45.644 95.242 45.672 94.8873 45.728C94.5513 45.7653 94.2527 45.8493 93.9913 45.98C93.73 46.1107 93.5247 46.288 93.3753 46.512C93.226 46.736 93.1513 47.016 93.1513 47.352C93.1513 48.0053 93.366 48.4627 93.7953 48.724C94.2433 48.9667 94.85 49.088 95.6153 49.088ZM95.2793 36.88C96.5113 36.88 97.538 37.02 98.3593 37.3C99.1807 37.58 99.834 37.9813 100.319 38.504C100.823 39.0267 101.178 39.6613 101.383 40.408C101.589 41.1547 101.691 41.9853 101.691 42.9V51.58C101.094 51.7107 100.263 51.86 99.1993 52.028C98.1353 52.2147 96.8473 52.308 95.3353 52.308C94.3833 52.308 93.5153 52.224 92.7313 52.056C91.966 51.888 91.3033 51.6173 90.7433 51.244C90.1833 50.852 89.754 50.348 89.4553 49.732C89.1567 49.116 89.0073 48.36 89.0073 47.464C89.0073 46.6053 89.1753 45.8773 89.5113 45.28C89.866 44.6827 90.3327 44.2067 90.9113 43.852C91.49 43.4973 92.1527 43.2453 92.8993 43.096C93.646 42.928 94.4207 42.844 95.2233 42.844C95.7647 42.844 96.2407 42.872 96.6513 42.928C97.0807 42.9653 97.426 43.0213 97.6873 43.096V42.704C97.6873 41.9947 97.4727 41.4253 97.0433 40.996C96.614 40.5667 95.8673 40.352 94.8033 40.352C94.094 40.352 93.394 40.408 92.7033 40.52C92.0127 40.6133 91.4153 40.7533 90.9113 40.94L90.3793 37.58C90.622 37.5053 90.9207 37.4307 91.2753 37.356C91.6487 37.2627 92.05 37.188 92.4793 37.132C92.9087 37.0573 93.3567 37.0013 93.8233 36.964C94.3087 36.908 94.794 36.88 95.2793 36.88ZM105.464 37.776C106.173 37.5707 107.088 37.384 108.208 37.216C109.328 37.0293 110.504 36.936 111.736 36.936C112.987 36.936 114.023 37.104 114.844 37.44C115.684 37.7573 116.347 38.2147 116.832 38.812C117.317 39.4093 117.663 40.1187 117.868 40.94C118.073 41.7613 118.176 42.676 118.176 43.684V52H114.004V44.188C114.004 42.844 113.827 41.892 113.472 41.332C113.117 40.772 112.455 40.492 111.484 40.492C111.185 40.492 110.868 40.5107 110.532 40.548C110.196 40.5667 109.897 40.5947 109.636 40.632V52H105.464V37.776ZM121.252 44.636C121.252 43.572 121.42 42.5733 121.756 41.64C122.111 40.688 122.615 39.8667 123.268 39.176C123.922 38.4667 124.715 37.9067 125.648 37.496C126.582 37.0853 127.646 36.88 128.84 36.88C129.624 36.88 130.343 36.9547 130.996 37.104C131.65 37.2347 132.284 37.4307 132.9 37.692L132.032 41.024C131.64 40.8747 131.211 40.744 130.744 40.632C130.278 40.52 129.755 40.464 129.176 40.464C127.944 40.464 127.02 40.8467 126.404 41.612C125.807 42.3773 125.508 43.3853 125.508 44.636C125.508 45.9613 125.788 46.988 126.348 47.716C126.927 48.444 127.926 48.808 129.344 48.808C129.848 48.808 130.39 48.7613 130.968 48.668C131.547 48.5747 132.079 48.4253 132.564 48.22L133.152 51.636C132.667 51.8413 132.06 52.0187 131.332 52.168C130.604 52.3173 129.802 52.392 128.924 52.392C127.58 52.392 126.423 52.196 125.452 51.804C124.482 51.3933 123.679 50.8427 123.044 50.152C122.428 49.4613 121.971 48.6493 121.672 47.716C121.392 46.764 121.252 45.7373 121.252 44.636ZM134.541 44.748C134.541 43.4413 134.737 42.3027 135.129 41.332C135.54 40.3427 136.072 39.5213 136.725 38.868C137.379 38.2147 138.125 37.72 138.965 37.384C139.824 37.048 140.701 36.88 141.597 36.88C143.688 36.88 145.34 37.524 146.553 38.812C147.767 40.0813 148.373 41.9573 148.373 44.44C148.373 44.6827 148.364 44.9533 148.345 45.252C148.327 45.532 148.308 45.784 148.289 46.008H138.825C138.919 46.8667 139.32 47.548 140.029 48.052C140.739 48.556 141.691 48.808 142.885 48.808C143.651 48.808 144.397 48.7427 145.125 48.612C145.872 48.4627 146.479 48.2853 146.945 48.08L147.505 51.468C147.281 51.58 146.983 51.692 146.609 51.804C146.236 51.916 145.816 52.0093 145.349 52.084C144.901 52.1773 144.416 52.252 143.893 52.308C143.371 52.364 142.848 52.392 142.325 52.392C141 52.392 139.843 52.196 138.853 51.804C137.883 51.412 137.071 50.88 136.417 50.208C135.783 49.5173 135.307 48.7053 134.989 47.772C134.691 46.8387 134.541 45.8307 134.541 44.748ZM144.341 43.152C144.323 42.7973 144.257 42.452 144.145 42.116C144.052 41.78 143.893 41.4813 143.669 41.22C143.464 40.9587 143.193 40.744 142.857 40.576C142.54 40.408 142.139 40.324 141.653 40.324C141.187 40.324 140.785 40.408 140.449 40.576C140.113 40.7253 139.833 40.9307 139.609 41.192C139.385 41.4533 139.208 41.7613 139.077 42.116C138.965 42.452 138.881 42.7973 138.825 43.152H144.341ZM65.3117 64.596V68.32H59.4597V84H55.0917V68.32H49.2397V64.596H65.3117ZM74.7735 72.968C74.4002 72.8747 73.9615 72.7813 73.4575 72.688C72.9535 72.576 72.4122 72.52 71.8335 72.52C71.5722 72.52 71.2548 72.548 70.8815 72.604C70.5268 72.6413 70.2562 72.688 70.0695 72.744V84H65.8975V70.056C66.6442 69.7947 67.5215 69.552 68.5295 69.328C69.5562 69.0853 70.6948 68.964 71.9455 68.964C72.1695 68.964 72.4402 68.9827 72.7575 69.02C73.0748 69.0387 73.3922 69.076 73.7095 69.132C74.0268 69.1693 74.3442 69.2253 74.6615 69.3C74.9788 69.356 75.2495 69.4307 75.4735 69.524L74.7735 72.968ZM83.0646 81.088C83.4752 81.088 83.8672 81.0787 84.2406 81.06C84.6139 81.0413 84.9126 81.0133 85.1366 80.976V77.812C84.9686 77.7747 84.7166 77.7373 84.3806 77.7C84.0446 77.6627 83.7366 77.644 83.4566 77.644C83.0646 77.644 82.6912 77.672 82.3366 77.728C82.0006 77.7653 81.7019 77.8493 81.4406 77.98C81.1792 78.1107 80.9739 78.288 80.8246 78.512C80.6752 78.736 80.6006 79.016 80.6006 79.352C80.6006 80.0053 80.8152 80.4627 81.2446 80.724C81.6926 80.9667 82.2992 81.088 83.0646 81.088ZM82.7286 68.88C83.9606 68.88 84.9872 69.02 85.8086 69.3C86.6299 69.58 87.2832 69.9813 87.7686 70.504C88.2726 71.0267 88.6272 71.6613 88.8326 72.408C89.0379 73.1547 89.1406 73.9853 89.1406 74.9V83.58C88.5432 83.7107 87.7126 83.86 86.6486 84.028C85.5846 84.2147 84.2966 84.308 82.7846 84.308C81.8326 84.308 80.9646 84.224 80.1806 84.056C79.4152 83.888 78.7526 83.6173 78.1926 83.244C77.6326 82.852 77.2032 82.348 76.9046 81.732C76.6059 81.116 76.4566 80.36 76.4566 79.464C76.4566 78.6053 76.6246 77.8773 76.9606 77.28C77.3152 76.6827 77.7819 76.2067 78.3606 75.852C78.9392 75.4973 79.6019 75.2453 80.3486 75.096C81.0952 74.928 81.8699 74.844 82.6726 74.844C83.2139 74.844 83.6899 74.872 84.1006 74.928C84.5299 74.9653 84.8752 75.0213 85.1366 75.096V74.704C85.1366 73.9947 84.9219 73.4253 84.4926 72.996C84.0632 72.5667 83.3166 72.352 82.2526 72.352C81.5432 72.352 80.8432 72.408 80.1526 72.52C79.4619 72.6133 78.8646 72.7533 78.3606 72.94L77.8286 69.58C78.0712 69.5053 78.3699 69.4307 78.7246 69.356C79.0979 69.2627 79.4992 69.188 79.9286 69.132C80.3579 69.0573 80.8059 69.0013 81.2726 68.964C81.7579 68.908 82.2432 68.88 82.7286 68.88ZM92.2131 76.636C92.2131 75.572 92.3811 74.5733 92.7171 73.64C93.0718 72.688 93.5758 71.8667 94.2291 71.176C94.8825 70.4667 95.6758 69.9067 96.6091 69.496C97.5425 69.0853 98.6065 68.88 99.8011 68.88C100.585 68.88 101.304 68.9547 101.957 69.104C102.61 69.2347 103.245 69.4307 103.861 69.692L102.993 73.024C102.601 72.8747 102.172 72.744 101.705 72.632C101.238 72.52 100.716 72.464 100.137 72.464C98.9051 72.464 97.9811 72.8467 97.3651 73.612C96.7678 74.3773 96.4691 75.3853 96.4691 76.636C96.4691 77.9613 96.7491 78.988 97.3091 79.716C97.8878 80.444 98.8865 80.808 100.305 80.808C100.809 80.808 101.35 80.7613 101.929 80.668C102.508 80.5747 103.04 80.4253 103.525 80.22L104.113 83.636C103.628 83.8413 103.021 84.0187 102.293 84.168C101.565 84.3173 100.762 84.392 99.8851 84.392C98.5411 84.392 97.3838 84.196 96.4131 83.804C95.4425 83.3933 94.6398 82.8427 94.0051 82.152C93.3891 81.4613 92.9318 80.6493 92.6331 79.716C92.3531 78.764 92.2131 77.7373 92.2131 76.636ZM111.085 74.592C111.496 74.144 111.916 73.6773 112.345 73.192C112.793 72.7067 113.222 72.2307 113.633 71.764C114.044 71.2787 114.426 70.8213 114.781 70.392C115.154 69.9627 115.472 69.5893 115.733 69.272H120.689C119.7 70.4107 118.729 71.5027 117.777 72.548C116.844 73.5747 115.817 74.6387 114.697 75.74C115.257 76.244 115.836 76.8507 116.433 77.56C117.03 78.2507 117.609 78.9693 118.169 79.716C118.729 80.4627 119.242 81.2093 119.709 81.956C120.176 82.7027 120.568 83.384 120.885 84H116.097C115.798 83.5147 115.453 82.9827 115.061 82.404C114.688 81.8067 114.286 81.2187 113.857 80.64C113.428 80.0427 112.97 79.4733 112.485 78.932C112.018 78.3907 111.552 77.9333 111.085 77.56V84H106.913V62.944L111.085 62.272V74.592ZM121.416 76.748C121.416 75.4413 121.612 74.3027 122.004 73.332C122.415 72.3427 122.947 71.5213 123.6 70.868C124.254 70.2147 125 69.72 125.84 69.384C126.699 69.048 127.576 68.88 128.472 68.88C130.563 68.88 132.215 69.524 133.428 70.812C134.642 72.0813 135.248 73.9573 135.248 76.44C135.248 76.6827 135.239 76.9533 135.22 77.252C135.202 77.532 135.183 77.784 135.164 78.008H125.7C125.794 78.8667 126.195 79.548 126.904 80.052C127.614 80.556 128.566 80.808 129.76 80.808C130.526 80.808 131.272 80.7427 132 80.612C132.747 80.4627 133.354 80.2853 133.82 80.08L134.38 83.468C134.156 83.58 133.858 83.692 133.484 83.804C133.111 83.916 132.691 84.0093 132.224 84.084C131.776 84.1773 131.291 84.252 130.768 84.308C130.246 84.364 129.723 84.392 129.2 84.392C127.875 84.392 126.718 84.196 125.728 83.804C124.758 83.412 123.946 82.88 123.292 82.208C122.658 81.5173 122.182 80.7053 121.864 79.772C121.566 78.8387 121.416 77.8307 121.416 76.748ZM131.216 75.152C131.198 74.7973 131.132 74.452 131.02 74.116C130.927 73.78 130.768 73.4813 130.544 73.22C130.339 72.9587 130.068 72.744 129.732 72.576C129.415 72.408 129.014 72.324 128.528 72.324C128.062 72.324 127.66 72.408 127.324 72.576C126.988 72.7253 126.708 72.9307 126.484 73.192C126.26 73.4533 126.083 73.7613 125.952 74.116C125.84 74.452 125.756 74.7973 125.7 75.152H131.216ZM147.344 72.968C146.97 72.8747 146.532 72.7813 146.028 72.688C145.524 72.576 144.982 72.52 144.404 72.52C144.142 72.52 143.825 72.548 143.452 72.604C143.097 72.6413 142.826 72.688 142.64 72.744V84H138.468V70.056C139.214 69.7947 140.092 69.552 141.1 69.328C142.126 69.0853 143.265 68.964 144.516 68.964C144.74 68.964 145.01 68.9827 145.328 69.02C145.645 69.0387 145.962 69.076 146.28 69.132C146.597 69.1693 146.914 69.2253 147.232 69.3C147.549 69.356 147.82 69.4307 148.044 69.524L147.344 72.968Z" fill="white"/>
</svg>
