<svg width="221" height="51" viewBox="0 0 221 51" fill="none" xmlns="http://www.w3.org/2000/svg">
<rect width="196" height="49" rx="10" fill="#191919"/>
<path d="M29.07 30.43C29.73 30.43 30.27 30.38 30.69 30.28C31.13 30.16 31.48 30.01 31.74 29.83C32 29.63 32.18 29.4 32.28 29.14C32.38 28.88 32.43 28.59 32.43 28.27C32.43 27.59 32.11 27.03 31.47 26.59C30.83 26.13 29.73 25.64 28.17 25.12C27.49 24.88 26.81 24.61 26.13 24.31C25.45 23.99 24.84 23.6 24.3 23.14C23.76 22.66 23.32 22.09 22.98 21.43C22.64 20.75 22.47 19.93 22.47 18.97C22.47 18.01 22.65 17.15 23.01 16.39C23.37 15.61 23.88 14.95 24.54 14.41C25.2 13.87 26 13.46 26.94 13.18C27.88 12.88 28.94 12.73 30.12 12.73C31.52 12.73 32.73 12.88 33.75 13.18C34.77 13.48 35.61 13.81 36.27 14.17L34.92 17.86C34.34 17.56 33.69 17.3 32.97 17.08C32.27 16.84 31.42 16.72 30.42 16.72C29.3 16.72 28.49 16.88 27.99 17.2C27.51 17.5 27.27 17.97 27.27 18.61C27.27 18.99 27.36 19.31 27.54 19.57C27.72 19.83 27.97 20.07 28.29 20.29C28.63 20.49 29.01 20.68 29.43 20.86C29.87 21.02 30.35 21.19 30.87 21.37C31.95 21.77 32.89 22.17 33.69 22.57C34.49 22.95 35.15 23.4 35.67 23.92C36.21 24.44 36.61 25.05 36.87 25.75C37.13 26.45 37.26 27.3 37.26 28.3C37.26 30.24 36.58 31.75 35.22 32.83C33.86 33.89 31.81 34.42 29.07 34.42C28.15 34.42 27.32 34.36 26.58 34.24C25.84 34.14 25.18 34.01 24.6 33.85C24.04 33.69 23.55 33.52 23.13 33.34C22.73 33.16 22.39 32.99 22.11 32.83L23.43 29.11C24.05 29.45 24.81 29.76 25.71 30.04C26.63 30.3 27.75 30.43 29.07 30.43ZM55.695 13.21V17.2H49.425V34H44.745V17.2H38.475V13.21H55.695ZM61.9296 23.59C61.9296 24.61 62.0496 25.53 62.2896 26.35C62.5496 27.17 62.9096 27.88 63.3696 28.48C63.8496 29.06 64.4296 29.51 65.1096 29.83C65.7896 30.15 66.5696 30.31 67.4496 30.31C68.3096 30.31 69.0796 30.15 69.7596 29.83C70.4596 29.51 71.0396 29.06 71.4996 28.48C71.9796 27.88 72.3396 27.17 72.5796 26.35C72.8396 25.53 72.9696 24.61 72.9696 23.59C72.9696 22.57 72.8396 21.65 72.5796 20.83C72.3396 19.99 71.9796 19.28 71.4996 18.7C71.0396 18.1 70.4596 17.64 69.7596 17.32C69.0796 17 68.3096 16.84 67.4496 16.84C66.5696 16.84 65.7896 17.01 65.1096 17.35C64.4296 17.67 63.8496 18.13 63.3696 18.73C62.9096 19.31 62.5496 20.02 62.2896 20.86C62.0496 21.68 61.9296 22.59 61.9296 23.59ZM77.7996 23.59C77.7996 25.37 77.5296 26.94 76.9896 28.3C76.4696 29.64 75.7496 30.77 74.8296 31.69C73.9096 32.59 72.8096 33.27 71.5296 33.73C70.2696 34.19 68.9096 34.42 67.4496 34.42C66.0296 34.42 64.6896 34.19 63.4296 33.73C62.1696 33.27 61.0696 32.59 60.1296 31.69C59.1896 30.77 58.4496 29.64 57.9096 28.3C57.3696 26.94 57.0996 25.37 57.0996 23.59C57.0996 21.81 57.3796 20.25 57.9396 18.91C58.4996 17.55 59.2496 16.41 60.1896 15.49C61.1496 14.57 62.2496 13.88 63.4896 13.42C64.7496 12.96 66.0696 12.73 67.4496 12.73C68.8696 12.73 70.2096 12.96 71.4696 13.42C72.7296 13.88 73.8296 14.57 74.7696 15.49C75.7096 16.41 76.4496 17.55 76.9896 18.91C77.5296 20.25 77.7996 21.81 77.7996 23.59ZM95.6508 34C94.3108 31.62 92.8608 29.27 91.3008 26.95C89.7408 24.63 88.0808 22.44 86.3208 20.38V34H81.7008V13.21H85.5108C86.1708 13.87 86.9008 14.68 87.7008 15.64C88.5008 16.6 89.3108 17.63 90.1308 18.73C90.9708 19.81 91.8008 20.94 92.6208 22.12C93.4408 23.28 94.2108 24.4 94.9308 25.48V13.21H99.5808V34H95.6508ZM116.647 34C116.227 33.32 115.727 32.59 115.147 31.81C114.587 31.01 113.967 30.22 113.287 29.44C112.627 28.64 111.937 27.88 111.217 27.16C110.497 26.42 109.777 25.77 109.057 25.21V34H104.377V13.21H109.057V21.07C110.277 19.79 111.497 18.46 112.717 17.08C113.957 15.68 115.107 14.39 116.167 13.21H121.717C120.297 14.89 118.867 16.51 117.427 18.07C116.007 19.63 114.507 21.2 112.927 22.78C114.587 24.16 116.187 25.8 117.727 27.7C119.287 29.6 120.777 31.7 122.197 34H116.647ZM137.908 34C137.328 32.84 136.688 31.67 135.988 30.49C135.308 29.29 134.518 28.07 133.618 26.83C133.338 27.19 132.978 27.69 132.538 28.33C132.118 28.97 131.688 29.65 131.248 30.37C130.828 31.09 130.428 31.78 130.048 32.44C129.668 33.1 129.388 33.62 129.208 34H123.868C124.748 32.38 125.768 30.68 126.928 28.9C128.108 27.12 129.418 25.23 130.858 23.23L124.168 13.21H129.838L133.888 19.69L137.848 13.21H143.188L136.588 23.29C138.268 25.47 139.678 27.49 140.818 29.35C141.958 31.19 142.858 32.74 143.518 34H137.908ZM157.65 33.7C156.19 33.58 155 33.36 154.08 33.04C153.18 32.7 152.51 32.42 152.07 32.2L153.36 28.75C154.06 29.09 154.89 29.4 155.85 29.68C156.83 29.96 157.86 30.1 158.94 30.1C160.16 30.1 160.99 29.94 161.43 29.62C161.89 29.28 162.12 28.81 162.12 28.21C162.12 27.83 162.03 27.51 161.85 27.25C161.67 26.97 161.41 26.72 161.07 26.5C160.73 26.28 160.3 26.07 159.78 25.87C159.26 25.65 158.66 25.42 157.98 25.18C157.32 24.94 156.67 24.68 156.03 24.4C155.41 24.1 154.84 23.74 154.32 23.32C153.82 22.9 153.41 22.39 153.09 21.79C152.79 21.17 152.64 20.43 152.64 19.57C152.64 18.91 152.73 18.28 152.91 17.68C153.11 17.06 153.41 16.5 153.81 16C154.21 15.5 154.73 15.08 155.37 14.74C156.01 14.38 156.77 14.12 157.65 13.96V10.72H161.43V13.84C162.47 13.94 163.36 14.09 164.1 14.29C164.86 14.49 165.46 14.69 165.9 14.89L164.97 18.49C164.31 18.21 163.54 17.97 162.66 17.77C161.8 17.57 160.89 17.47 159.93 17.47C158.97 17.47 158.28 17.63 157.86 17.95C157.44 18.27 157.23 18.69 157.23 19.21C157.23 19.53 157.29 19.81 157.41 20.05C157.55 20.27 157.76 20.47 158.04 20.65C158.32 20.83 158.66 21.01 159.06 21.19C159.48 21.35 159.98 21.53 160.56 21.73C161.44 22.05 162.25 22.4 162.99 22.78C163.75 23.16 164.4 23.6 164.94 24.1C165.5 24.58 165.93 25.15 166.23 25.81C166.55 26.47 166.71 27.24 166.71 28.12C166.71 28.72 166.62 29.32 166.44 29.92C166.26 30.5 165.96 31.04 165.54 31.54C165.12 32.04 164.57 32.47 163.89 32.83C163.23 33.19 162.41 33.45 161.43 33.61V37.27H157.65V33.7Z" fill="white"/>
</svg>
