<svg width="414" height="264" viewBox="0 0 414 264" fill="none" xmlns="http://www.w3.org/2000/svg">
<g filter="url(#filter0_d_45_254)">
<path d="M7 23C7 11.9543 15.9543 3 27 3H387C398.046 3 407 11.9543 407 23V233C407 244.046 398.046 253 387 253H27C15.9543 253 7 244.046 7 233V23Z" fill="#242424"/>
<path d="M8.5 23C8.5 12.7827 16.7827 4.5 27 4.5H387C397.217 4.5 405.5 12.7827 405.5 23V233C405.5 243.217 397.217 251.5 387 251.5H27C16.7827 251.5 8.5 243.217 8.5 233V23Z" stroke="black" stroke-width="3"/>
</g>
<path d="M30.8716 155.14H35.8116V156.88H30.8716V155.14ZM45.6681 151.68C45.6681 152.16 45.5681 152.627 45.3681 153.08C45.1815 153.52 44.9281 153.96 44.6081 154.4C44.2881 154.827 43.9281 155.253 43.5281 155.68C43.1281 156.093 42.7281 156.5 42.3281 156.9C42.1015 157.127 41.8348 157.393 41.5281 157.7C41.2348 158.007 40.9548 158.327 40.6881 158.66C40.4215 158.993 40.1948 159.313 40.0081 159.62C39.8348 159.927 39.7481 160.193 39.7481 160.42H46.1281V162H37.7281C37.7148 161.92 37.7081 161.84 37.7081 161.76C37.7081 161.68 37.7081 161.607 37.7081 161.54C37.7081 160.913 37.8081 160.333 38.0081 159.8C38.2215 159.253 38.4948 158.74 38.8281 158.26C39.1615 157.78 39.5348 157.327 39.9481 156.9C40.3615 156.473 40.7681 156.06 41.1681 155.66C41.5015 155.34 41.8148 155.027 42.1081 154.72C42.4148 154.4 42.6815 154.087 42.9081 153.78C43.1481 153.46 43.3348 153.133 43.4681 152.8C43.6148 152.467 43.6881 152.113 43.6881 151.74C43.6881 151.34 43.6215 151 43.4881 150.72C43.3681 150.44 43.2015 150.207 42.9881 150.02C42.7748 149.833 42.5215 149.7 42.2281 149.62C41.9481 149.527 41.6481 149.48 41.3281 149.48C40.9415 149.48 40.5881 149.533 40.2681 149.64C39.9481 149.747 39.6615 149.873 39.4081 150.02C39.1548 150.153 38.9415 150.3 38.7681 150.46C38.5948 150.607 38.4615 150.72 38.3681 150.8L37.4481 149.48C37.5681 149.347 37.7481 149.187 37.9881 149C38.2281 148.8 38.5148 148.613 38.8481 148.44C39.1815 148.267 39.5548 148.12 39.9681 148C40.3815 147.88 40.8281 147.82 41.3081 147.82C42.7615 147.82 43.8481 148.16 44.5681 148.84C45.3015 149.507 45.6681 150.453 45.6681 151.68ZM51.4172 160.92C51.4172 161.28 51.2972 161.593 51.0572 161.86C50.8172 162.127 50.4905 162.26 50.0772 162.26C49.6639 162.26 49.3372 162.127 49.0972 161.86C48.8572 161.593 48.7372 161.28 48.7372 160.92C48.7372 160.56 48.8572 160.247 49.0972 159.98C49.3372 159.713 49.6639 159.58 50.0772 159.58C50.4905 159.58 50.8172 159.713 51.0572 159.98C51.2972 160.247 51.4172 160.56 51.4172 160.92ZM62.5591 153.68C62.5591 156.427 61.8724 158.507 60.4991 159.92C59.1391 161.32 57.1124 162.027 54.4191 162.04L54.3591 160.48C55.1991 160.48 55.9524 160.4 56.6191 160.24C57.2991 160.08 57.8924 159.827 58.3991 159.48C58.9057 159.12 59.3257 158.66 59.6591 158.1C60.0057 157.54 60.2591 156.853 60.4191 156.04C60.0724 156.2 59.6791 156.333 59.2391 156.44C58.7991 156.533 58.3457 156.58 57.8791 156.58C57.0924 156.58 56.4257 156.467 55.8791 156.24C55.3324 156 54.8857 155.687 54.5391 155.3C54.1924 154.9 53.9391 154.447 53.7791 153.94C53.6324 153.42 53.5591 152.88 53.5591 152.32C53.5591 151.827 53.6457 151.313 53.8191 150.78C53.9924 150.247 54.2524 149.76 54.5991 149.32C54.9591 148.88 55.4124 148.52 55.9591 148.24C56.5057 147.96 57.1524 147.82 57.8991 147.82C58.6591 147.82 59.3257 147.953 59.8991 148.22C60.4857 148.487 60.9724 148.873 61.3591 149.38C61.7591 149.887 62.0591 150.507 62.2591 151.24C62.4591 151.96 62.5591 152.773 62.5591 153.68ZM58.0791 155.06C58.5457 155.06 58.9857 155.02 59.3991 154.94C59.8124 154.847 60.2124 154.713 60.5991 154.54C60.6124 154.393 60.6191 154.253 60.6191 154.12C60.6191 153.973 60.6191 153.827 60.6191 153.68C60.6191 153.107 60.5791 152.56 60.4991 152.04C60.4191 151.507 60.2724 151.047 60.0591 150.66C59.8591 150.26 59.5857 149.947 59.2391 149.72C58.8924 149.48 58.4524 149.36 57.9191 149.36C57.4791 149.36 57.1057 149.453 56.7991 149.64C56.4924 149.827 56.2391 150.067 56.0391 150.36C55.8391 150.64 55.6924 150.953 55.5991 151.3C55.5191 151.633 55.4791 151.96 55.4791 152.28C55.4791 153.187 55.6924 153.88 56.1191 154.36C56.5591 154.827 57.2124 155.06 58.0791 155.06ZM73.1681 151.68C73.1681 152.16 73.0681 152.627 72.8681 153.08C72.6815 153.52 72.4281 153.96 72.1081 154.4C71.7881 154.827 71.4281 155.253 71.0281 155.68C70.6281 156.093 70.2281 156.5 69.8281 156.9C69.6015 157.127 69.3348 157.393 69.0281 157.7C68.7348 158.007 68.4548 158.327 68.1881 158.66C67.9215 158.993 67.6948 159.313 67.5081 159.62C67.3348 159.927 67.2481 160.193 67.2481 160.42H73.6281V162H65.2281C65.2148 161.92 65.2081 161.84 65.2081 161.76C65.2081 161.68 65.2081 161.607 65.2081 161.54C65.2081 160.913 65.3081 160.333 65.5081 159.8C65.7215 159.253 65.9948 158.74 66.3281 158.26C66.6615 157.78 67.0348 157.327 67.4481 156.9C67.8615 156.473 68.2681 156.06 68.6681 155.66C69.0015 155.34 69.3148 155.027 69.6081 154.72C69.9148 154.4 70.1815 154.087 70.4081 153.78C70.6481 153.46 70.8348 153.133 70.9681 152.8C71.1148 152.467 71.1881 152.113 71.1881 151.74C71.1881 151.34 71.1215 151 70.9881 150.72C70.8681 150.44 70.7015 150.207 70.4881 150.02C70.2748 149.833 70.0215 149.7 69.7281 149.62C69.4481 149.527 69.1481 149.48 68.8281 149.48C68.4415 149.48 68.0881 149.533 67.7681 149.64C67.4481 149.747 67.1615 149.873 66.9081 150.02C66.6548 150.153 66.4415 150.3 66.2681 150.46C66.0948 150.607 65.9615 150.72 65.8681 150.8L64.9481 149.48C65.0681 149.347 65.2481 149.187 65.4881 149C65.7281 148.8 66.0148 148.613 66.3481 148.44C66.6815 148.267 67.0548 148.12 67.4681 148C67.8815 147.88 68.3281 147.82 68.8081 147.82C70.2615 147.82 71.3481 148.16 72.0681 148.84C72.8015 149.507 73.1681 150.453 73.1681 151.68ZM83.1661 156.02C83.1661 157.727 83.4128 159.307 83.9061 160.76C84.3994 162.213 85.1261 163.56 86.0861 164.8L84.7661 165.7C83.7261 164.433 82.8861 162.98 82.2461 161.34C81.6194 159.687 81.3061 157.913 81.3061 156.02C81.3061 154.127 81.6194 152.36 82.2461 150.72C82.8861 149.067 83.7261 147.607 84.7661 146.34L86.0861 147.24C85.1261 148.48 84.3994 149.827 83.9061 151.28C83.4128 152.733 83.1661 154.313 83.1661 156.02ZM86.7505 155.14H91.6905V156.88H86.7505V155.14ZM93.207 155.06C93.207 152.74 93.6137 150.953 94.427 149.7C95.2537 148.447 96.3937 147.82 97.847 147.82C99.3004 147.82 100.434 148.447 101.247 149.7C102.074 150.953 102.487 152.74 102.487 155.06C102.487 157.38 102.074 159.167 101.247 160.42C100.434 161.673 99.3004 162.3 97.847 162.3C96.3937 162.3 95.2537 161.673 94.427 160.42C93.6137 159.167 93.207 157.38 93.207 155.06ZM100.527 155.06C100.527 154.3 100.48 153.58 100.387 152.9C100.307 152.22 100.16 151.627 99.947 151.12C99.747 150.613 99.4737 150.213 99.127 149.92C98.7804 149.613 98.3537 149.46 97.847 149.46C97.3404 149.46 96.9137 149.613 96.567 149.92C96.2204 150.213 95.9404 150.613 95.727 151.12C95.527 151.627 95.3804 152.22 95.287 152.9C95.207 153.58 95.167 154.3 95.167 155.06C95.167 155.82 95.207 156.54 95.287 157.22C95.3804 157.9 95.527 158.493 95.727 159C95.9404 159.507 96.2204 159.913 96.567 160.22C96.9137 160.513 97.3404 160.66 97.847 160.66C98.3537 160.66 98.7804 160.513 99.127 160.22C99.4737 159.913 99.747 159.507 99.947 159C100.16 158.493 100.307 157.9 100.387 157.22C100.48 156.54 100.527 155.82 100.527 155.06ZM107.296 160.92C107.296 161.28 107.176 161.593 106.936 161.86C106.696 162.127 106.369 162.26 105.956 162.26C105.543 162.26 105.216 162.127 104.976 161.86C104.736 161.593 104.616 161.28 104.616 160.92C104.616 160.56 104.736 160.247 104.976 159.98C105.216 159.713 105.543 159.58 105.956 159.58C106.369 159.58 106.696 159.713 106.936 159.98C107.176 160.247 107.296 160.56 107.296 160.92ZM111.678 162C111.758 160.933 111.945 159.813 112.238 158.64C112.545 157.453 112.918 156.307 113.358 155.2C113.798 154.08 114.278 153.047 114.798 152.1C115.331 151.14 115.851 150.36 116.358 149.76H109.618V148.14H118.438V149.68C117.998 150.187 117.511 150.887 116.978 151.78C116.445 152.66 115.938 153.653 115.458 154.76C114.991 155.853 114.585 157.027 114.238 158.28C113.905 159.52 113.698 160.76 113.618 162H111.678ZM121.567 151C122.327 150.707 123.067 150.333 123.787 149.88C124.507 149.413 125.167 148.833 125.767 148.14H127.087V162H125.227V150.72C125.067 150.867 124.867 151.02 124.627 151.18C124.4 151.34 124.147 151.493 123.867 151.64C123.6 151.787 123.314 151.927 123.007 152.06C122.714 152.193 122.427 152.307 122.147 152.4L121.567 151ZM131.996 151.52C131.996 150.92 132.076 150.393 132.236 149.94C132.396 149.487 132.616 149.107 132.896 148.8C133.189 148.48 133.529 148.24 133.916 148.08C134.303 147.92 134.723 147.84 135.176 147.84C135.629 147.84 136.049 147.92 136.436 148.08C136.823 148.24 137.156 148.48 137.436 148.8C137.729 149.107 137.956 149.487 138.116 149.94C138.276 150.393 138.356 150.92 138.356 151.52C138.356 152.12 138.276 152.647 138.116 153.1C137.956 153.553 137.729 153.94 137.436 154.26C137.156 154.567 136.823 154.8 136.436 154.96C136.049 155.12 135.629 155.2 135.176 155.2C134.723 155.2 134.303 155.12 133.916 154.96C133.529 154.8 133.189 154.567 132.896 154.26C132.616 153.94 132.396 153.553 132.236 153.1C132.076 152.647 131.996 152.12 131.996 151.52ZM136.796 151.52C136.796 150.8 136.656 150.24 136.376 149.84C136.096 149.427 135.696 149.22 135.176 149.22C134.656 149.22 134.256 149.427 133.976 149.84C133.696 150.24 133.556 150.8 133.556 151.52C133.556 152.24 133.696 152.807 133.976 153.22C134.256 153.62 134.656 153.82 135.176 153.82C135.696 153.82 136.096 153.62 136.376 153.22C136.656 152.807 136.796 152.24 136.796 151.52ZM140.796 158.62C140.796 158.02 140.876 157.493 141.036 157.04C141.196 156.587 141.416 156.207 141.696 155.9C141.989 155.58 142.329 155.34 142.716 155.18C143.103 155.02 143.523 154.94 143.976 154.94C144.429 154.94 144.849 155.02 145.236 155.18C145.623 155.34 145.956 155.58 146.236 155.9C146.529 156.207 146.756 156.587 146.916 157.04C147.076 157.493 147.156 158.02 147.156 158.62C147.156 159.22 147.076 159.747 146.916 160.2C146.756 160.653 146.529 161.04 146.236 161.36C145.956 161.667 145.623 161.9 145.236 162.06C144.849 162.22 144.429 162.3 143.976 162.3C143.523 162.3 143.103 162.22 142.716 162.06C142.329 161.9 141.989 161.667 141.696 161.36C141.416 161.04 141.196 160.653 141.036 160.2C140.876 159.747 140.796 159.22 140.796 158.62ZM145.596 158.62C145.596 157.9 145.456 157.34 145.176 156.94C144.896 156.527 144.496 156.32 143.976 156.32C143.456 156.32 143.056 156.527 142.776 156.94C142.496 157.34 142.356 157.9 142.356 158.62C142.356 159.34 142.496 159.907 142.776 160.32C143.056 160.72 143.456 160.92 143.976 160.92C144.496 160.92 144.896 160.72 145.176 160.32C145.456 159.907 145.596 159.34 145.596 158.62ZM144.396 148.14L136.576 162H134.756L142.576 148.14H144.396ZM151.224 156.02C151.224 154.313 150.977 152.733 150.484 151.28C149.991 149.827 149.264 148.48 148.304 147.24L149.624 146.34C150.664 147.607 151.497 149.067 152.124 150.72C152.764 152.36 153.084 154.127 153.084 156.02C153.084 157.913 152.764 159.687 152.124 161.34C151.497 162.98 150.664 164.433 149.624 165.7L148.304 164.8C149.264 163.56 149.991 162.213 150.484 160.76C150.977 159.307 151.224 157.727 151.224 156.02Z" fill="#FF0000"/>
<g style="mix-blend-mode:screen">
<path d="M7.5 24C7.5 13.2304 16.2304 4.5 27 4.5H387C397.77 4.5 406.5 13.2304 406.5 24V88.5H7.5V24Z" fill="#B11717"/>
<path d="M7.5 24C7.5 13.2304 16.2304 4.5 27 4.5H387C397.77 4.5 406.5 13.2304 406.5 24V88.5H7.5V24Z" stroke="black"/>
</g>
<path d="M36.704 42.928C36.4907 42.416 36.2027 41.7653 35.84 40.976C35.4987 40.1867 35.1253 39.3333 34.72 38.416C34.3147 37.4987 33.8773 36.56 33.408 35.6C32.96 34.6187 32.5333 33.7013 32.128 32.848C31.7227 31.9733 31.3387 31.1947 30.976 30.512C30.6347 29.8293 30.3573 29.3067 30.144 28.944C29.9093 31.4613 29.7173 34.192 29.568 37.136C29.4187 40.0587 29.2907 43.0133 29.184 46H26.144C26.2293 44.08 26.3253 42.1493 26.432 40.208C26.5387 38.2453 26.656 36.3253 26.784 34.448C26.9333 32.5493 27.0827 30.704 27.232 28.912C27.4027 27.12 27.584 25.424 27.776 23.824H30.496C31.072 24.7627 31.6907 25.872 32.352 27.152C33.0133 28.432 33.6747 29.776 34.336 31.184C34.9973 32.5707 35.6373 33.968 36.256 35.376C36.8747 36.7627 37.44 38.032 37.952 39.184C38.464 38.032 39.0293 36.7627 39.648 35.376C40.2667 33.968 40.9067 32.5707 41.568 31.184C42.2293 29.776 42.8907 28.432 43.552 27.152C44.2133 25.872 44.832 24.7627 45.408 23.824H48.128C48.8533 30.9707 49.3973 38.3627 49.76 46H46.72C46.6133 43.0133 46.4853 40.0587 46.336 37.136C46.1867 34.192 45.9947 31.4613 45.76 28.944C45.5467 29.3067 45.2587 29.8293 44.896 30.512C44.5547 31.1947 44.1813 31.9733 43.776 32.848C43.3707 33.7013 42.9333 34.6187 42.464 35.6C42.016 36.56 41.5893 37.4987 41.184 38.416C40.7787 39.3333 40.3947 40.1867 40.032 40.976C39.6907 41.7653 39.4133 42.416 39.2 42.928H36.704ZM57.411 46H54.435V29.36H57.411V46ZM55.907 26.352C55.3737 26.352 54.915 26.1813 54.531 25.84C54.1683 25.4773 53.987 24.9973 53.987 24.4C53.987 23.8027 54.1683 23.3333 54.531 22.992C54.915 22.6293 55.3737 22.448 55.907 22.448C56.4403 22.448 56.8883 22.6293 57.251 22.992C57.635 23.3333 57.827 23.8027 57.827 24.4C57.827 24.9973 57.635 25.4773 57.251 25.84C56.8883 26.1813 56.4403 26.352 55.907 26.352ZM69.7608 46.384C68.4168 46.384 67.2328 46.1707 66.2088 45.744C65.2061 45.3173 64.3528 44.72 63.6488 43.952C62.9661 43.184 62.4541 42.2773 62.1128 41.232C61.7714 40.1653 61.6008 38.992 61.6008 37.712C61.6008 36.432 61.7821 35.2587 62.1448 34.192C62.5288 33.1253 63.0621 32.208 63.7448 31.44C64.4274 30.6507 65.2594 30.0427 66.2408 29.616C67.2434 29.168 68.3528 28.944 69.5688 28.944C70.3154 28.944 71.0621 29.008 71.8088 29.136C72.5554 29.264 73.2701 29.4667 73.9528 29.744L73.2808 32.272C72.8328 32.0587 72.3101 31.888 71.7128 31.76C71.1368 31.632 70.5181 31.568 69.8568 31.568C68.1928 31.568 66.9128 32.0907 66.0168 33.136C65.1421 34.1813 64.7048 35.7067 64.7048 37.712C64.7048 38.608 64.8008 39.4293 64.9928 40.176C65.2061 40.9227 65.5261 41.5627 65.9528 42.096C66.4008 42.6293 66.9661 43.0453 67.6488 43.344C68.3314 43.6213 69.1634 43.76 70.1448 43.76C70.9341 43.76 71.6488 43.6853 72.2888 43.536C72.9288 43.3867 73.4301 43.2267 73.7928 43.056L74.2088 45.552C74.0381 45.6587 73.7928 45.7653 73.4728 45.872C73.1528 45.9573 72.7901 46.032 72.3848 46.096C71.9794 46.1813 71.5421 46.2453 71.0728 46.288C70.6248 46.352 70.1874 46.384 69.7608 46.384ZM83.5478 29.008C83.8038 29.008 84.0918 29.0293 84.4118 29.072C84.7531 29.0933 85.0838 29.136 85.4038 29.2C85.7238 29.2427 86.0118 29.296 86.2678 29.36C86.5451 29.4027 86.7478 29.4453 86.8758 29.488L86.3638 32.08C86.1291 31.9947 85.7344 31.8987 85.1798 31.792C84.6464 31.664 83.9531 31.6 83.0998 31.6C82.5451 31.6 81.9904 31.664 81.4358 31.792C80.9024 31.8987 80.5504 31.9733 80.3798 32.016V46H77.4038V30.064C78.1078 29.808 78.9824 29.5733 80.0278 29.36C81.0731 29.1253 82.2464 29.008 83.5478 29.008ZM104.436 37.68C104.436 39.0027 104.244 40.1973 103.86 41.264C103.476 42.3307 102.932 43.248 102.228 44.016C101.545 44.784 100.724 45.3813 99.7635 45.808C98.8035 46.2133 97.7582 46.416 96.6275 46.416C95.4968 46.416 94.4515 46.2133 93.4915 45.808C92.5315 45.3813 91.6995 44.784 90.9955 44.016C90.3128 43.248 89.7795 42.3307 89.3955 41.264C89.0115 40.1973 88.8195 39.0027 88.8195 37.68C88.8195 36.3787 89.0115 35.1947 89.3955 34.128C89.7795 33.04 90.3128 32.112 90.9955 31.344C91.6995 30.576 92.5315 29.9893 93.4915 29.584C94.4515 29.1573 95.4968 28.944 96.6275 28.944C97.7582 28.944 98.8035 29.1573 99.7635 29.584C100.724 29.9893 101.545 30.576 102.228 31.344C102.932 32.112 103.476 33.04 103.86 34.128C104.244 35.1947 104.436 36.3787 104.436 37.68ZM101.332 37.68C101.332 35.8027 100.905 34.32 100.052 33.232C99.2195 32.1227 98.0782 31.568 96.6275 31.568C95.1768 31.568 94.0248 32.1227 93.1715 33.232C92.3395 34.32 91.9235 35.8027 91.9235 37.68C91.9235 39.5573 92.3395 41.0507 93.1715 42.16C94.0248 43.248 95.1768 43.792 96.6275 43.792C98.0782 43.792 99.2195 43.248 100.052 42.16C100.905 41.0507 101.332 39.5573 101.332 37.68ZM112.495 43.856C113.711 43.856 114.607 43.696 115.183 43.376C115.78 43.056 116.079 42.544 116.079 41.84C116.079 41.1147 115.791 40.5387 115.215 40.112C114.639 39.6853 113.689 39.2053 112.367 38.672C111.727 38.416 111.108 38.16 110.511 37.904C109.935 37.6267 109.433 37.3067 109.007 36.944C108.58 36.5813 108.239 36.144 107.983 35.632C107.727 35.12 107.599 34.4907 107.599 33.744C107.599 32.272 108.143 31.1093 109.231 30.256C110.319 29.3813 111.801 28.944 113.679 28.944C114.148 28.944 114.617 28.976 115.087 29.04C115.556 29.0827 115.993 29.1467 116.399 29.232C116.804 29.296 117.156 29.3707 117.455 29.456C117.775 29.5413 118.02 29.616 118.191 29.68L117.647 32.24C117.327 32.0693 116.825 31.8987 116.143 31.728C115.46 31.536 114.639 31.44 113.679 31.44C112.847 31.44 112.121 31.6107 111.503 31.952C110.884 32.272 110.575 32.784 110.575 33.488C110.575 33.8507 110.639 34.1707 110.766 34.448C110.916 34.7253 111.129 34.9813 111.407 35.216C111.705 35.4293 112.068 35.632 112.495 35.824C112.921 36.016 113.433 36.2187 114.031 36.432C114.82 36.7307 115.524 37.0293 116.143 37.328C116.761 37.6053 117.284 37.936 117.711 38.32C118.159 38.704 118.5 39.1733 118.735 39.728C118.969 40.2613 119.087 40.9227 119.087 41.712C119.087 43.248 118.511 44.4107 117.359 45.2C116.228 45.9893 114.607 46.384 112.495 46.384C111.023 46.384 109.871 46.256 109.039 46C108.207 45.7653 107.641 45.584 107.343 45.456L107.887 42.896C108.228 43.024 108.772 43.216 109.519 43.472C110.265 43.728 111.257 43.856 112.495 43.856ZM137.592 37.68C137.592 39.0027 137.4 40.1973 137.016 41.264C136.632 42.3307 136.088 43.248 135.384 44.016C134.701 44.784 133.88 45.3813 132.92 45.808C131.96 46.2133 130.914 46.416 129.784 46.416C128.653 46.416 127.608 46.2133 126.648 45.808C125.688 45.3813 124.856 44.784 124.152 44.016C123.469 43.248 122.936 42.3307 122.552 41.264C122.168 40.1973 121.976 39.0027 121.976 37.68C121.976 36.3787 122.168 35.1947 122.552 34.128C122.936 33.04 123.469 32.112 124.152 31.344C124.856 30.576 125.688 29.9893 126.648 29.584C127.608 29.1573 128.653 28.944 129.784 28.944C130.914 28.944 131.96 29.1573 132.92 29.584C133.88 29.9893 134.701 30.576 135.384 31.344C136.088 32.112 136.632 33.04 137.016 34.128C137.4 35.1947 137.592 36.3787 137.592 37.68ZM134.488 37.68C134.488 35.8027 134.061 34.32 133.208 33.232C132.376 32.1227 131.234 31.568 129.784 31.568C128.333 31.568 127.181 32.1227 126.328 33.232C125.496 34.32 125.08 35.8027 125.08 37.68C125.08 39.5573 125.496 41.0507 126.328 42.16C127.181 43.248 128.333 43.792 129.784 43.792C131.234 43.792 132.376 43.248 133.208 42.16C134.061 41.0507 134.488 39.5573 134.488 37.68ZM148.275 21.168C149.149 21.168 149.896 21.232 150.515 21.36C151.155 21.488 151.603 21.6053 151.859 21.712L151.315 24.272C151.059 24.144 150.696 24.0267 150.227 23.92C149.757 23.792 149.181 23.728 148.499 23.728C147.112 23.728 146.141 24.112 145.587 24.88C145.032 25.6267 144.755 26.64 144.755 27.92V29.36H151.155V31.856H144.755V46H141.779V27.856C141.779 25.7227 142.301 24.08 143.347 22.928C144.392 21.7547 146.035 21.168 148.275 21.168ZM156.907 29.36H163.211V31.856H156.907V39.536C156.907 40.368 156.971 41.0613 157.099 41.616C157.227 42.1493 157.419 42.576 157.675 42.896C157.931 43.1947 158.251 43.408 158.635 43.536C159.019 43.664 159.467 43.728 159.979 43.728C160.875 43.728 161.589 43.632 162.123 43.44C162.677 43.2267 163.061 43.0773 163.275 42.992L163.851 45.456C163.552 45.6053 163.029 45.7867 162.283 46C161.536 46.2347 160.683 46.352 159.723 46.352C158.592 46.352 157.653 46.2133 156.907 45.936C156.181 45.6373 155.595 45.2 155.147 44.624C154.699 44.048 154.379 43.344 154.187 42.512C154.016 41.6587 153.931 40.6773 153.931 39.568V24.72L156.907 24.208V29.36ZM184.132 46.48C182.574 46.48 181.156 46.224 179.876 45.712C178.596 45.2 177.497 44.4533 176.58 43.472C175.662 42.4907 174.948 41.2853 174.436 39.856C173.945 38.4053 173.7 36.752 173.7 34.896C173.7 33.04 173.977 31.3973 174.532 29.968C175.108 28.5173 175.876 27.3013 176.836 26.32C177.796 25.3387 178.916 24.592 180.196 24.08C181.476 23.568 182.841 23.312 184.292 23.312C185.209 23.312 186.03 23.376 186.756 23.504C187.502 23.632 188.142 23.7813 188.676 23.952C189.23 24.1227 189.678 24.2933 190.02 24.464C190.361 24.6347 190.596 24.7627 190.724 24.848L189.828 27.408C189.636 27.28 189.358 27.1413 188.996 26.992C188.633 26.8427 188.217 26.6933 187.748 26.544C187.3 26.3947 186.798 26.2773 186.244 26.192C185.71 26.0853 185.166 26.032 184.612 26.032C183.438 26.032 182.382 26.2347 181.444 26.64C180.505 27.0453 179.705 27.632 179.044 28.4C178.382 29.168 177.87 30.1067 177.508 31.216C177.166 32.304 176.996 33.5307 176.996 34.896C176.996 36.2187 177.145 37.424 177.444 38.512C177.764 39.6 178.233 40.5387 178.852 41.328C179.47 42.096 180.238 42.6933 181.156 43.12C182.094 43.5467 183.182 43.76 184.42 43.76C185.849 43.76 187.033 43.6107 187.972 43.312C188.91 43.0133 189.614 42.7467 190.084 42.512L190.884 45.072C190.734 45.1787 190.468 45.3173 190.084 45.488C189.7 45.6373 189.22 45.7867 188.644 45.936C188.068 46.0853 187.396 46.2133 186.628 46.32C185.86 46.4267 185.028 46.48 184.132 46.48ZM208.467 37.68C208.467 39.0027 208.275 40.1973 207.891 41.264C207.507 42.3307 206.963 43.248 206.259 44.016C205.576 44.784 204.755 45.3813 203.795 45.808C202.835 46.2133 201.789 46.416 200.659 46.416C199.528 46.416 198.483 46.2133 197.523 45.808C196.563 45.3813 195.731 44.784 195.027 44.016C194.344 43.248 193.811 42.3307 193.427 41.264C193.043 40.1973 192.851 39.0027 192.851 37.68C192.851 36.3787 193.043 35.1947 193.427 34.128C193.811 33.04 194.344 32.112 195.027 31.344C195.731 30.576 196.563 29.9893 197.523 29.584C198.483 29.1573 199.528 28.944 200.659 28.944C201.789 28.944 202.835 29.1573 203.795 29.584C204.755 29.9893 205.576 30.576 206.259 31.344C206.963 32.112 207.507 33.04 207.891 34.128C208.275 35.1947 208.467 36.3787 208.467 37.68ZM205.363 37.68C205.363 35.8027 204.936 34.32 204.083 33.232C203.251 32.1227 202.109 31.568 200.659 31.568C199.208 31.568 198.056 32.1227 197.203 33.232C196.371 34.32 195.955 35.8027 195.955 37.68C195.955 39.5573 196.371 41.0507 197.203 42.16C198.056 43.248 199.208 43.792 200.659 43.792C202.109 43.792 203.251 43.248 204.083 42.16C204.936 41.0507 205.363 39.5573 205.363 37.68ZM218.798 29.008C219.054 29.008 219.342 29.0293 219.662 29.072C220.003 29.0933 220.334 29.136 220.654 29.2C220.974 29.2427 221.262 29.296 221.518 29.36C221.795 29.4027 221.998 29.4453 222.126 29.488L221.614 32.08C221.379 31.9947 220.984 31.8987 220.43 31.792C219.896 31.664 219.203 31.6 218.35 31.6C217.795 31.6 217.24 31.664 216.686 31.792C216.152 31.8987 215.8 31.9733 215.63 32.016V46H212.654V30.064C213.358 29.808 214.232 29.5733 215.278 29.36C216.323 29.1253 217.496 29.008 218.798 29.008ZM236.55 37.712C236.55 35.7707 236.07 34.2773 235.11 33.232C234.15 32.1867 232.87 31.664 231.27 31.664C230.374 31.664 229.67 31.696 229.158 31.76C228.667 31.824 228.272 31.8987 227.974 31.984V42.48C228.336 42.7787 228.859 43.0667 229.542 43.344C230.224 43.6213 230.971 43.76 231.782 43.76C232.635 43.76 233.36 43.6107 233.958 43.312C234.576 42.992 235.078 42.5653 235.462 42.032C235.846 41.4773 236.123 40.8373 236.294 40.112C236.464 39.3653 236.55 38.5653 236.55 37.712ZM239.654 37.712C239.654 38.9707 239.483 40.1333 239.142 41.2C238.822 42.2667 238.342 43.184 237.702 43.952C237.062 44.72 236.272 45.3173 235.334 45.744C234.416 46.1707 233.36 46.384 232.166 46.384C231.206 46.384 230.352 46.256 229.606 46C228.88 45.744 228.336 45.4987 227.974 45.264V51.92H224.998V29.872C225.702 29.7013 226.576 29.52 227.622 29.328C228.688 29.1147 229.915 29.008 231.302 29.008C232.582 29.008 233.734 29.2107 234.758 29.616C235.782 30.0213 236.656 30.5973 237.382 31.344C238.107 32.0907 238.662 33.008 239.046 34.096C239.451 35.1627 239.654 36.368 239.654 37.712Z" fill="white"/>
<path d="M35.24 80C34.9867 79.5333 34.66 78.9867 34.26 78.36C33.8733 77.7333 33.4467 77.0667 32.98 76.36C32.5133 75.64 32.02 74.9067 31.5 74.16C30.98 73.4 30.46 72.6667 29.94 71.96C29.4333 71.24 28.9333 70.5667 28.44 69.94C27.96 69.3133 27.5267 68.7733 27.14 68.32V80H25.8V66.14H26.88C27.56 66.9 28.2867 67.78 29.06 68.78C29.8467 69.7667 30.6133 70.78 31.36 71.82C32.1067 72.8467 32.8 73.8533 33.44 74.84C34.0933 75.8267 34.6267 76.6867 35.04 77.42V66.14H36.38V80H35.24ZM49.2997 80C49.0464 79.32 48.8064 78.6667 48.5797 78.04C48.353 77.4133 48.133 76.8 47.9197 76.2H41.1797C40.953 76.8 40.7264 77.4133 40.4997 78.04C40.273 78.6667 40.0397 79.32 39.7997 80H38.3797C38.913 78.56 39.413 77.22 39.8797 75.98C40.3464 74.7267 40.7997 73.5467 41.2397 72.44C41.693 71.32 42.1397 70.2467 42.5797 69.22C43.0197 68.1933 43.4864 67.1667 43.9797 66.14H45.1797C45.673 67.1667 46.1397 68.1933 46.5797 69.22C47.0197 70.2467 47.4597 71.32 47.8997 72.44C48.353 73.5467 48.813 74.7267 49.2797 75.98C49.7464 77.22 50.253 78.56 50.7997 80H49.2997ZM44.5397 67.7C44.033 68.8467 43.5397 70.0133 43.0597 71.2C42.593 72.3867 42.1064 73.6667 41.5997 75.04H47.4997C46.993 73.6667 46.4997 72.3867 46.0197 71.2C45.5397 70.0133 45.0464 68.8467 44.5397 67.7ZM56.0847 79.12C57.1647 79.12 58.0047 78.9267 58.6047 78.54C59.2047 78.14 59.5047 77.5 59.5047 76.62C59.5047 76.1133 59.4047 75.6933 59.2047 75.36C59.018 75.0133 58.7647 74.7267 58.4447 74.5C58.1247 74.26 57.758 74.06 57.3447 73.9C56.9314 73.7267 56.498 73.5467 56.0447 73.36C55.4714 73.1333 54.958 72.9 54.5047 72.66C54.0514 72.42 53.6647 72.1533 53.3447 71.86C53.0247 71.5533 52.778 71.2067 52.6047 70.82C52.4447 70.4333 52.3647 69.98 52.3647 69.46C52.3647 68.2733 52.758 67.3733 53.5447 66.76C54.3314 66.1467 55.4247 65.84 56.8247 65.84C57.198 65.84 57.5647 65.8667 57.9247 65.92C58.2847 65.9733 58.618 66.0467 58.9247 66.14C59.2447 66.22 59.5314 66.3133 59.7847 66.42C60.0514 66.5267 60.2714 66.64 60.4447 66.76L59.9647 67.9C59.578 67.6333 59.1047 67.42 58.5447 67.26C57.998 67.1 57.4047 67.02 56.7647 67.02C56.3247 67.02 55.918 67.0667 55.5447 67.16C55.1847 67.24 54.8714 67.38 54.6047 67.58C54.338 67.7667 54.1247 68.0067 53.9647 68.3C53.818 68.5933 53.7447 68.9467 53.7447 69.36C53.7447 69.7867 53.8247 70.1467 53.9847 70.44C54.1447 70.7333 54.3647 70.9867 54.6447 71.2C54.938 71.4133 55.278 71.6067 55.6647 71.78C56.0514 71.9533 56.4714 72.1333 56.9247 72.32C57.4714 72.5467 57.9847 72.7733 58.4647 73C58.958 73.2267 59.3847 73.4933 59.7447 73.8C60.1047 74.1067 60.3914 74.48 60.6047 74.92C60.818 75.36 60.9247 75.9 60.9247 76.54C60.9247 77.7933 60.4847 78.7333 59.6047 79.36C58.738 79.9867 57.558 80.3 56.0647 80.3C55.5314 80.3 55.0447 80.2667 54.6047 80.2C54.1647 80.1333 53.7714 80.0533 53.4247 79.96C53.078 79.8533 52.7847 79.7467 52.5447 79.64C52.3047 79.5333 52.118 79.44 51.9847 79.36L52.4247 78.18C52.558 78.26 52.738 78.3533 52.9647 78.46C53.1914 78.5667 53.458 78.6733 53.7647 78.78C54.0714 78.8733 54.418 78.9533 54.8047 79.02C55.1914 79.0867 55.618 79.12 56.0847 79.12ZM74.4367 73.06C74.4367 74.2467 74.2501 75.28 73.8767 76.16C73.5034 77.04 72.9767 77.7733 72.2967 78.36C71.6301 78.9467 70.8301 79.3867 69.8967 79.68C68.9634 79.9733 67.9367 80.12 66.8167 80.12C66.2567 80.12 65.6701 80.0867 65.0567 80.02C64.4434 79.9667 63.9034 79.88 63.4367 79.76V66.4C63.9034 66.2667 64.4434 66.1733 65.0567 66.12C65.6701 66.0533 66.2567 66.02 66.8167 66.02C67.9367 66.02 68.9634 66.1667 69.8967 66.46C70.8301 66.7533 71.6301 67.1933 72.2967 67.78C72.9767 68.3667 73.5034 69.1 73.8767 69.98C74.2501 70.86 74.4367 71.8867 74.4367 73.06ZM64.7967 78.8C64.8767 78.8133 65.0767 78.84 65.3967 78.88C65.7301 78.92 66.2567 78.94 66.9767 78.94C67.9767 78.94 68.8501 78.8067 69.5967 78.54C70.3434 78.26 70.9701 77.8667 71.4767 77.36C71.9834 76.8533 72.3634 76.24 72.6167 75.52C72.8701 74.7867 72.9967 73.9667 72.9967 73.06C72.9967 72.1533 72.8701 71.34 72.6167 70.62C72.3634 69.9 71.9834 69.2867 71.4767 68.78C70.9701 68.2733 70.3434 67.8867 69.5967 67.62C68.8501 67.34 67.9767 67.2 66.9767 67.2C66.2567 67.2 65.7301 67.22 65.3967 67.26C65.0767 67.3 64.8767 67.3267 64.7967 67.34V78.8ZM86.6434 80C86.3901 79.32 86.1501 78.6667 85.9234 78.04C85.6968 77.4133 85.4768 76.8 85.2634 76.2H78.5234C78.2968 76.8 78.0701 77.4133 77.8434 78.04C77.6168 78.6667 77.3834 79.32 77.1434 80H75.7234C76.2568 78.56 76.7568 77.22 77.2234 75.98C77.6901 74.7267 78.1434 73.5467 78.5834 72.44C79.0368 71.32 79.4834 70.2467 79.9234 69.22C80.3634 68.1933 80.8301 67.1667 81.3234 66.14H82.5234C83.0168 67.1667 83.4834 68.1933 83.9234 69.22C84.3634 70.2467 84.8034 71.32 85.2434 72.44C85.6968 73.5467 86.1568 74.7267 86.6234 75.98C87.0901 77.22 87.5968 78.56 88.1434 80H86.6434ZM81.8834 67.7C81.3768 68.8467 80.8834 70.0133 80.4034 71.2C79.9368 72.3867 79.4501 73.6667 78.9434 75.04H84.8434C84.3368 73.6667 83.8434 72.3867 83.3634 71.2C82.8834 70.0133 82.3901 68.8467 81.8834 67.7ZM102.42 73.06C102.42 74.1267 102.28 75.0733 102 75.9C101.72 76.7267 101.34 77.44 100.86 78.04C100.38 78.64 99.813 79.12 99.1597 79.48C98.5064 79.84 97.8064 80.08 97.0597 80.2C97.113 80.5733 97.2797 80.8933 97.5597 81.16C97.853 81.4267 98.1997 81.6533 98.5997 81.84C99.013 82.0267 99.4664 82.1733 99.9597 82.28C100.453 82.4 100.933 82.4933 101.4 82.56L101.12 83.7C100.613 83.6067 100.066 83.4867 99.4797 83.34C98.893 83.2067 98.333 83.0133 97.7997 82.76C97.2797 82.5067 96.8264 82.18 96.4397 81.78C96.053 81.3933 95.7997 80.9 95.6797 80.3C94.8264 80.2733 94.0197 80.1 93.2597 79.78C92.4997 79.46 91.833 79 91.2597 78.4C90.6997 77.7867 90.253 77.0333 89.9197 76.14C89.5864 75.2467 89.4197 74.22 89.4197 73.06C89.4197 71.8733 89.593 70.8333 89.9397 69.94C90.2864 69.0333 90.753 68.28 91.3397 67.68C91.9397 67.0667 92.633 66.6067 93.4197 66.3C94.2064 65.9933 95.0397 65.84 95.9197 65.84C96.7997 65.84 97.633 65.9933 98.4197 66.3C99.2064 66.6067 99.893 67.0667 100.48 67.68C101.08 68.28 101.553 69.0333 101.9 69.94C102.246 70.8333 102.42 71.8733 102.42 73.06ZM100.98 73.06C100.98 72.1267 100.86 71.2933 100.62 70.56C100.38 69.8133 100.04 69.18 99.5997 68.66C99.1597 68.14 98.6264 67.7467 97.9997 67.48C97.3864 67.2 96.693 67.06 95.9197 67.06C95.1464 67.06 94.4464 67.2 93.8197 67.48C93.2064 67.7467 92.6797 68.14 92.2397 68.66C91.7997 69.18 91.4597 69.8133 91.2197 70.56C90.9797 71.2933 90.8597 72.1267 90.8597 73.06C90.8597 73.9933 90.9797 74.8333 91.2197 75.58C91.4597 76.3133 91.7997 76.94 92.2397 77.46C92.6797 77.98 93.2064 78.38 93.8197 78.66C94.4464 78.94 95.1464 79.08 95.9197 79.08C96.693 79.08 97.3864 78.94 97.9997 78.66C98.6264 78.38 99.1597 77.98 99.5997 77.46C100.04 76.94 100.38 76.3133 100.62 75.58C100.86 74.8333 100.98 73.9933 100.98 73.06ZM107.228 79.14C107.228 79.4467 107.128 79.7067 106.928 79.92C106.741 80.1333 106.475 80.24 106.128 80.24C105.781 80.24 105.508 80.1333 105.308 79.92C105.121 79.7067 105.028 79.4467 105.028 79.14C105.028 78.8333 105.121 78.5733 105.308 78.36C105.508 78.1467 105.781 78.04 106.128 78.04C106.475 78.04 106.741 78.1467 106.928 78.36C107.128 78.5733 107.228 78.8333 107.228 79.14ZM107.228 70.76C107.228 71.0667 107.128 71.3267 106.928 71.54C106.741 71.7533 106.475 71.86 106.128 71.86C105.781 71.86 105.508 71.7533 105.308 71.54C105.121 71.3267 105.028 71.0667 105.028 70.76C105.028 70.4533 105.121 70.1933 105.308 69.98C105.508 69.7667 105.781 69.66 106.128 69.66C106.475 69.66 106.741 69.7667 106.928 69.98C107.128 70.1933 107.228 70.4533 107.228 70.76ZM116.61 78C116.477 77.6667 116.283 77.2267 116.03 76.68C115.79 76.1333 115.517 75.54 115.21 74.9C114.903 74.2467 114.59 73.58 114.27 72.9C113.95 72.2067 113.643 71.56 113.35 70.96C113.057 70.36 112.797 69.8333 112.57 69.38C112.343 68.9267 112.177 68.6067 112.07 68.42C111.897 70.0867 111.757 71.9 111.65 73.86C111.557 75.8067 111.47 77.8533 111.39 80H110.05C110.17 77.48 110.303 75.0667 110.45 72.76C110.61 70.4533 110.803 68.2467 111.03 66.14H112.23C112.63 66.8067 113.057 67.58 113.51 68.46C113.963 69.3267 114.41 70.2333 114.85 71.18C115.303 72.1133 115.737 73.04 116.15 73.96C116.577 74.8667 116.95 75.6867 117.27 76.42C117.59 75.6867 117.957 74.8667 118.37 73.96C118.797 73.04 119.23 72.1133 119.67 71.18C120.123 70.2333 120.577 69.3267 121.03 68.46C121.483 67.58 121.91 66.8067 122.31 66.14H123.45C123.677 68.2467 123.863 70.4533 124.01 72.76C124.17 75.0667 124.31 77.48 124.43 80H123.05C122.97 77.8533 122.877 75.8067 122.77 73.86C122.677 71.9 122.543 70.0867 122.37 68.42C122.263 68.6067 122.097 68.9267 121.87 69.38C121.643 69.8333 121.383 70.36 121.09 70.96C120.797 71.56 120.49 72.2067 120.17 72.9C119.85 73.58 119.537 74.2467 119.23 74.9C118.923 75.54 118.643 76.1333 118.39 76.68C118.15 77.2267 117.963 77.6667 117.83 78H116.61ZM130.675 79.12C131.755 79.12 132.595 78.9267 133.195 78.54C133.795 78.14 134.095 77.5 134.095 76.62C134.095 76.1133 133.995 75.6933 133.795 75.36C133.608 75.0133 133.355 74.7267 133.035 74.5C132.715 74.26 132.348 74.06 131.935 73.9C131.521 73.7267 131.088 73.5467 130.635 73.36C130.061 73.1333 129.548 72.9 129.095 72.66C128.641 72.42 128.255 72.1533 127.935 71.86C127.615 71.5533 127.368 71.2067 127.195 70.82C127.035 70.4333 126.955 69.98 126.955 69.46C126.955 68.2733 127.348 67.3733 128.135 66.76C128.921 66.1467 130.015 65.84 131.415 65.84C131.788 65.84 132.155 65.8667 132.515 65.92C132.875 65.9733 133.208 66.0467 133.515 66.14C133.835 66.22 134.121 66.3133 134.375 66.42C134.641 66.5267 134.861 66.64 135.035 66.76L134.555 67.9C134.168 67.6333 133.695 67.42 133.135 67.26C132.588 67.1 131.995 67.02 131.355 67.02C130.915 67.02 130.508 67.0667 130.135 67.16C129.775 67.24 129.461 67.38 129.195 67.58C128.928 67.7667 128.715 68.0067 128.555 68.3C128.408 68.5933 128.335 68.9467 128.335 69.36C128.335 69.7867 128.415 70.1467 128.575 70.44C128.735 70.7333 128.955 70.9867 129.235 71.2C129.528 71.4133 129.868 71.6067 130.255 71.78C130.641 71.9533 131.061 72.1333 131.515 72.32C132.061 72.5467 132.575 72.7733 133.055 73C133.548 73.2267 133.975 73.4933 134.335 73.8C134.695 74.1067 134.981 74.48 135.195 74.92C135.408 75.36 135.515 75.9 135.515 76.54C135.515 77.7933 135.075 78.7333 134.195 79.36C133.328 79.9867 132.148 80.3 130.655 80.3C130.121 80.3 129.635 80.2667 129.195 80.2C128.755 80.1333 128.361 80.0533 128.015 79.96C127.668 79.8533 127.375 79.7467 127.135 79.64C126.895 79.5333 126.708 79.44 126.575 79.36L127.015 78.18C127.148 78.26 127.328 78.3533 127.555 78.46C127.781 78.5667 128.048 78.6733 128.355 78.78C128.661 78.8733 129.008 78.9533 129.395 79.02C129.781 79.0867 130.208 79.12 130.675 79.12ZM138.027 80V66.14H145.927V67.32H139.387V72.2H145.187V73.38H139.387V80H138.027ZM157.491 66.14V67.32H153.051V80H151.691V67.32H147.251V66.14H157.491Z" fill="white"/>
<path d="M21.4503 122.6C21.8936 121.573 22.5003 120.383 23.2703 119.03C24.0403 117.653 24.9036 116.242 25.8603 114.795C26.8403 113.348 27.8786 111.925 28.9753 110.525C30.0953 109.125 31.2153 107.865 32.3353 106.745H35.4503V122.145H38.3203V124.805H35.4503V131H32.3003V124.805H21.4503V122.6ZM32.3003 110.595C31.6003 111.342 30.8886 112.182 30.1653 113.115C29.4653 114.025 28.777 114.982 28.1003 115.985C27.4236 116.988 26.782 118.015 26.1753 119.065C25.592 120.115 25.067 121.142 24.6003 122.145H32.3003V110.595ZM41.5562 118.855C41.5562 114.795 42.2678 111.668 43.6912 109.475C45.1378 107.282 47.1328 106.185 49.6762 106.185C52.2195 106.185 54.2028 107.282 55.6262 109.475C57.0728 111.668 57.7962 114.795 57.7962 118.855C57.7962 122.915 57.0728 126.042 55.6262 128.235C54.2028 130.428 52.2195 131.525 49.6762 131.525C47.1328 131.525 45.1378 130.428 43.6912 128.235C42.2678 126.042 41.5562 122.915 41.5562 118.855ZM54.3662 118.855C54.3662 117.525 54.2845 116.265 54.1212 115.075C53.9812 113.885 53.7245 112.847 53.3512 111.96C53.0012 111.073 52.5228 110.373 51.9162 109.86C51.3095 109.323 50.5628 109.055 49.6762 109.055C48.7895 109.055 48.0428 109.323 47.4362 109.86C46.8295 110.373 46.3395 111.073 45.9662 111.96C45.6162 112.847 45.3595 113.885 45.1962 115.075C45.0562 116.265 44.9862 117.525 44.9862 118.855C44.9862 120.185 45.0562 121.445 45.1962 122.635C45.3595 123.825 45.6162 124.863 45.9662 125.75C46.3395 126.637 46.8295 127.348 47.4362 127.885C48.0428 128.398 48.7895 128.655 49.6762 128.655C50.5628 128.655 51.3095 128.398 51.9162 127.885C52.5228 127.348 53.0012 126.637 53.3512 125.75C53.7245 124.863 53.9812 123.825 54.1212 122.635C54.2845 121.445 54.3662 120.185 54.3662 118.855ZM61.767 121.27C61.767 118.913 62.0937 116.837 62.747 115.04C63.4003 113.22 64.322 111.692 65.512 110.455C66.7253 109.218 68.1837 108.285 69.887 107.655C71.6137 107.002 73.5503 106.663 75.697 106.64L75.942 109.37C74.5653 109.393 73.3053 109.545 72.162 109.825C71.042 110.105 70.0387 110.548 69.152 111.155C68.2653 111.762 67.5187 112.555 66.912 113.535C66.3053 114.492 65.8503 115.682 65.547 117.105C66.1537 116.825 66.8303 116.592 67.577 116.405C68.347 116.218 69.1403 116.125 69.957 116.125C71.3337 116.125 72.5003 116.335 73.457 116.755C74.4137 117.175 75.1953 117.735 75.802 118.435C76.4087 119.112 76.8403 119.905 77.097 120.815C77.377 121.702 77.517 122.635 77.517 123.615C77.517 124.502 77.3653 125.412 77.062 126.345C76.7587 127.278 76.292 128.13 75.662 128.9C75.0553 129.67 74.2737 130.3 73.317 130.79C72.3603 131.28 71.2287 131.525 69.922 131.525C67.262 131.525 65.232 130.615 63.832 128.795C62.4553 126.975 61.767 124.467 61.767 121.27ZM69.607 118.785C68.7903 118.785 68.032 118.867 67.332 119.03C66.632 119.17 65.932 119.392 65.232 119.695C65.2087 119.952 65.1853 120.22 65.162 120.5C65.162 120.757 65.162 121.013 65.162 121.27C65.162 122.297 65.232 123.265 65.372 124.175C65.512 125.085 65.757 125.89 66.107 126.59C66.4803 127.267 66.9703 127.815 67.577 128.235C68.1837 128.632 68.9537 128.83 69.887 128.83C70.657 128.83 71.3103 128.667 71.847 128.34C72.3837 128.013 72.827 127.593 73.177 127.08C73.527 126.567 73.772 126.018 73.912 125.435C74.0753 124.828 74.157 124.245 74.157 123.685C74.157 122.098 73.772 120.885 73.002 120.045C72.2553 119.205 71.1237 118.785 69.607 118.785ZM85.9679 129.11C85.9679 129.74 85.7579 130.288 85.3379 130.755C84.9179 131.222 84.3462 131.455 83.6229 131.455C82.8995 131.455 82.3279 131.222 81.9079 130.755C81.4879 130.288 81.2779 129.74 81.2779 129.11C81.2779 128.48 81.4879 127.932 81.9079 127.465C82.3279 126.998 82.8995 126.765 83.6229 126.765C84.3462 126.765 84.9179 126.998 85.3379 127.465C85.7579 127.932 85.9679 128.48 85.9679 129.11ZM104.276 112.94C104.276 113.78 104.101 114.597 103.751 115.39C103.424 116.16 102.981 116.93 102.421 117.7C101.861 118.447 101.231 119.193 100.531 119.94C99.8312 120.663 99.1312 121.375 98.4312 122.075C98.0345 122.472 97.5678 122.938 97.0312 123.475C96.5178 124.012 96.0278 124.572 95.5612 125.155C95.0945 125.738 94.6978 126.298 94.3712 126.835C94.0678 127.372 93.9162 127.838 93.9162 128.235H105.081V131H90.3812C90.3578 130.86 90.3462 130.72 90.3462 130.58C90.3462 130.44 90.3462 130.312 90.3462 130.195C90.3462 129.098 90.5212 128.083 90.8712 127.15C91.2445 126.193 91.7228 125.295 92.3062 124.455C92.8895 123.615 93.5428 122.822 94.2662 122.075C94.9895 121.328 95.7012 120.605 96.4012 119.905C96.9845 119.345 97.5328 118.797 98.0462 118.26C98.5828 117.7 99.0495 117.152 99.4462 116.615C99.8662 116.055 100.193 115.483 100.426 114.9C100.683 114.317 100.811 113.698 100.811 113.045C100.811 112.345 100.694 111.75 100.461 111.26C100.251 110.77 99.9595 110.362 99.5862 110.035C99.2128 109.708 98.7695 109.475 98.2562 109.335C97.7662 109.172 97.2412 109.09 96.6812 109.09C96.0045 109.09 95.3862 109.183 94.8262 109.37C94.2662 109.557 93.7645 109.778 93.3212 110.035C92.8778 110.268 92.5045 110.525 92.2012 110.805C91.8978 111.062 91.6645 111.26 91.5012 111.4L89.8912 109.09C90.1012 108.857 90.4162 108.577 90.8362 108.25C91.2562 107.9 91.7578 107.573 92.3412 107.27C92.9245 106.967 93.5778 106.71 94.3012 106.5C95.0245 106.29 95.8062 106.185 96.6462 106.185C99.1895 106.185 101.091 106.78 102.351 107.97C103.634 109.137 104.276 110.793 104.276 112.94ZM124.032 112.94C124.032 113.78 123.857 114.597 123.507 115.39C123.18 116.16 122.737 116.93 122.177 117.7C121.617 118.447 120.987 119.193 120.287 119.94C119.587 120.663 118.887 121.375 118.187 122.075C117.79 122.472 117.324 122.938 116.787 123.475C116.274 124.012 115.784 124.572 115.317 125.155C114.85 125.738 114.454 126.298 114.127 126.835C113.824 127.372 113.672 127.838 113.672 128.235H124.837V131H110.137C110.114 130.86 110.102 130.72 110.102 130.58C110.102 130.44 110.102 130.312 110.102 130.195C110.102 129.098 110.277 128.083 110.627 127.15C111 126.193 111.479 125.295 112.062 124.455C112.645 123.615 113.299 122.822 114.022 122.075C114.745 121.328 115.457 120.605 116.157 119.905C116.74 119.345 117.289 118.797 117.802 118.26C118.339 117.7 118.805 117.152 119.202 116.615C119.622 116.055 119.949 115.483 120.182 114.9C120.439 114.317 120.567 113.698 120.567 113.045C120.567 112.345 120.45 111.75 120.217 111.26C120.007 110.77 119.715 110.362 119.342 110.035C118.969 109.708 118.525 109.475 118.012 109.335C117.522 109.172 116.997 109.09 116.437 109.09C115.76 109.09 115.142 109.183 114.582 109.37C114.022 109.557 113.52 109.778 113.077 110.035C112.634 110.268 112.26 110.525 111.957 110.805C111.654 111.062 111.42 111.26 111.257 111.4L109.647 109.09C109.857 108.857 110.172 108.577 110.592 108.25C111.012 107.9 111.514 107.573 112.097 107.27C112.68 106.967 113.334 106.71 114.057 106.5C114.78 106.29 115.562 106.185 116.402 106.185C118.945 106.185 120.847 106.78 122.107 107.97C123.39 109.137 124.032 110.793 124.032 112.94ZM143.799 131.36C142.711 131.36 141.767 131.192 140.967 130.856C140.167 130.52 139.511 130.064 138.999 129.488C138.487 128.896 138.103 128.2 137.847 127.4C137.607 126.6 137.487 125.736 137.487 124.808V114.368H139.815V124.544C139.815 126.208 140.183 127.416 140.919 128.168C141.655 128.92 142.615 129.296 143.799 129.296C144.391 129.296 144.927 129.208 145.407 129.032C145.903 128.84 146.327 128.552 146.679 128.168C147.031 127.784 147.303 127.296 147.495 126.704C147.687 126.096 147.783 125.376 147.783 124.544V114.368H150.111V124.808C150.111 125.736 149.983 126.6 149.727 127.4C149.487 128.2 149.103 128.896 148.575 129.488C148.063 130.064 147.407 130.52 146.607 130.856C145.823 131.192 144.887 131.36 143.799 131.36ZM157.995 129.344C160.427 129.344 161.643 128.512 161.643 126.848C161.643 126.336 161.531 125.904 161.307 125.552C161.099 125.184 160.811 124.872 160.443 124.616C160.075 124.344 159.651 124.112 159.171 123.92C158.707 123.728 158.211 123.536 157.683 123.344C157.075 123.136 156.499 122.904 155.955 122.648C155.411 122.376 154.939 122.064 154.539 121.712C154.139 121.344 153.819 120.912 153.579 120.416C153.355 119.92 153.243 119.32 153.243 118.616C153.243 117.16 153.739 116.024 154.731 115.208C155.723 114.392 157.091 113.984 158.835 113.984C159.843 113.984 160.755 114.096 161.571 114.32C162.403 114.528 163.011 114.76 163.395 115.016L162.651 116.912C162.315 116.704 161.811 116.504 161.139 116.312C160.483 116.104 159.715 116 158.835 116C158.387 116 157.971 116.048 157.587 116.144C157.203 116.24 156.867 116.384 156.579 116.576C156.291 116.768 156.059 117.016 155.883 117.32C155.723 117.608 155.643 117.952 155.643 118.352C155.643 118.8 155.731 119.176 155.907 119.48C156.083 119.784 156.331 120.056 156.651 120.296C156.971 120.52 157.339 120.728 157.755 120.92C158.187 121.112 158.659 121.304 159.171 121.496C159.891 121.784 160.547 122.072 161.139 122.36C161.747 122.648 162.267 122.992 162.699 123.392C163.147 123.792 163.491 124.272 163.731 124.832C163.971 125.376 164.091 126.04 164.091 126.824C164.091 128.28 163.555 129.4 162.483 130.184C161.427 130.968 159.931 131.36 157.995 131.36C157.339 131.36 156.731 131.312 156.171 131.216C155.627 131.136 155.139 131.04 154.707 130.928C154.275 130.8 153.899 130.672 153.579 130.544C153.275 130.4 153.035 130.28 152.859 130.184L153.555 128.264C153.923 128.472 154.483 128.704 155.235 128.96C155.987 129.216 156.907 129.344 157.995 129.344ZM180.56 122.672C180.56 124.112 180.336 125.368 179.888 126.44C179.44 127.496 178.808 128.376 177.992 129.08C177.176 129.768 176.2 130.288 175.064 130.64C173.928 130.976 172.68 131.144 171.32 131.144C170.648 131.144 169.904 131.112 169.088 131.048C168.288 131 167.56 130.896 166.904 130.736V114.608C167.56 114.448 168.288 114.344 169.088 114.296C169.904 114.232 170.648 114.2 171.32 114.2C172.68 114.2 173.928 114.376 175.064 114.728C176.2 115.064 177.176 115.584 177.992 116.288C178.808 116.976 179.44 117.856 179.888 118.928C180.336 119.984 180.56 121.232 180.56 122.672ZM171.512 129.104C173.72 129.104 175.368 128.544 176.456 127.424C177.544 126.288 178.088 124.704 178.088 122.672C178.088 120.64 177.544 119.064 176.456 117.944C175.368 116.808 173.72 116.24 171.512 116.24C170.856 116.24 170.344 116.248 169.976 116.264C169.624 116.28 169.376 116.296 169.232 116.312V129.032C169.376 129.048 169.624 129.064 169.976 129.08C170.344 129.096 170.856 129.104 171.512 129.104Z" fill="white"/>
<path d="M32.64 179.6C35.7547 179.6 38.144 180.197 39.808 181.392C41.4933 182.565 42.336 184.325 42.336 186.672C42.336 187.952 42.1013 189.051 41.632 189.968C41.184 190.864 40.5227 191.6 39.648 192.176C38.7947 192.731 37.7493 193.136 36.512 193.392C35.2747 193.648 33.8773 193.776 32.32 193.776H29.856V202H26.752V180.144C27.6267 179.931 28.5973 179.792 29.664 179.728C30.752 179.643 31.744 179.6 32.64 179.6ZM32.896 182.32C31.5733 182.32 30.56 182.352 29.856 182.416V191.12H32.192C33.2587 191.12 34.2187 191.056 35.072 190.928C35.9253 190.779 36.64 190.544 37.216 190.224C37.8133 189.883 38.272 189.424 38.592 188.848C38.912 188.272 39.072 187.536 39.072 186.64C39.072 185.787 38.9013 185.083 38.56 184.528C38.24 183.973 37.792 183.536 37.216 183.216C36.6613 182.875 36.0107 182.64 35.264 182.512C34.5173 182.384 33.728 182.32 32.896 182.32ZM52.1728 185.008C52.4288 185.008 52.7168 185.029 53.0368 185.072C53.3781 185.093 53.7088 185.136 54.0288 185.2C54.3488 185.243 54.6368 185.296 54.8928 185.36C55.1701 185.403 55.3728 185.445 55.5008 185.488L54.9888 188.08C54.7541 187.995 54.3594 187.899 53.8048 187.792C53.2714 187.664 52.5781 187.6 51.7248 187.6C51.1701 187.6 50.6154 187.664 50.0608 187.792C49.5274 187.899 49.1754 187.973 49.0048 188.016V202H46.0288V186.064C46.7328 185.808 47.6074 185.573 48.6528 185.36C49.6981 185.125 50.8714 185.008 52.1728 185.008ZM73.0605 193.68C73.0605 195.003 72.8685 196.197 72.4845 197.264C72.1005 198.331 71.5565 199.248 70.8525 200.016C70.1698 200.784 69.3485 201.381 68.3885 201.808C67.4285 202.213 66.3832 202.416 65.2525 202.416C64.1218 202.416 63.0765 202.213 62.1165 201.808C61.1565 201.381 60.3245 200.784 59.6205 200.016C58.9378 199.248 58.4045 198.331 58.0205 197.264C57.6365 196.197 57.4445 195.003 57.4445 193.68C57.4445 192.379 57.6365 191.195 58.0205 190.128C58.4045 189.04 58.9378 188.112 59.6205 187.344C60.3245 186.576 61.1565 185.989 62.1165 185.584C63.0765 185.157 64.1218 184.944 65.2525 184.944C66.3832 184.944 67.4285 185.157 68.3885 185.584C69.3485 185.989 70.1698 186.576 70.8525 187.344C71.5565 188.112 72.1005 189.04 72.4845 190.128C72.8685 191.195 73.0605 192.379 73.0605 193.68ZM69.9565 193.68C69.9565 191.803 69.5298 190.32 68.6765 189.232C67.8445 188.123 66.7032 187.568 65.2525 187.568C63.8018 187.568 62.6498 188.123 61.7965 189.232C60.9645 190.32 60.5485 191.803 60.5485 193.68C60.5485 195.557 60.9645 197.051 61.7965 198.16C62.6498 199.248 63.8018 199.792 65.2525 199.792C66.7032 199.792 67.8445 199.248 68.6765 198.16C69.5298 197.051 69.9565 195.557 69.9565 193.68ZM74.5275 207.984C74.2715 207.984 73.9408 207.952 73.5355 207.888C73.1302 207.824 72.7888 207.739 72.5115 207.632L72.8955 205.2C73.1088 205.264 73.3542 205.317 73.6315 205.36C73.9088 205.403 74.1648 205.424 74.3995 205.424C75.4235 205.424 76.1488 205.104 76.5755 204.464C77.0235 203.845 77.2475 202.928 77.2475 201.712V185.36H80.2235V201.68C80.2235 203.813 79.7328 205.392 78.7515 206.416C77.7915 207.461 76.3835 207.984 74.5275 207.984ZM78.7195 182.352C78.1862 182.352 77.7275 182.181 77.3435 181.84C76.9808 181.477 76.7995 180.997 76.7995 180.4C76.7995 179.803 76.9808 179.333 77.3435 178.992C77.7275 178.629 78.1862 178.448 78.7195 178.448C79.2528 178.448 79.7008 178.629 80.0635 178.992C80.4475 179.333 80.6395 179.803 80.6395 180.4C80.6395 180.997 80.4475 181.477 80.0635 181.84C79.7008 182.181 79.2528 182.352 78.7195 182.352ZM84.4133 193.712C84.4133 192.24 84.6266 190.96 85.0533 189.872C85.4799 188.763 86.0453 187.845 86.7493 187.12C87.4533 186.395 88.2639 185.851 89.1813 185.488C90.0986 185.125 91.0373 184.944 91.9973 184.944C94.2373 184.944 95.9546 185.648 97.1493 187.056C98.3439 188.443 98.9412 190.565 98.9412 193.424C98.9412 193.552 98.9412 193.723 98.9412 193.936C98.9412 194.128 98.9306 194.309 98.9093 194.48H87.5173C87.6453 196.208 88.1466 197.52 89.0213 198.416C89.8959 199.312 91.2613 199.76 93.1173 199.76C94.1626 199.76 95.0373 199.675 95.7413 199.504C96.4666 199.312 97.0106 199.131 97.3733 198.96L97.7893 201.456C97.4266 201.648 96.7866 201.851 95.8693 202.064C94.9733 202.277 93.9493 202.384 92.7973 202.384C91.3466 202.384 90.0879 202.171 89.0213 201.744C87.9759 201.296 87.1119 200.688 86.4293 199.92C85.7466 199.152 85.2346 198.245 84.8932 197.2C84.5733 196.133 84.4133 194.971 84.4133 193.712ZM95.8373 192.08C95.8586 190.736 95.5173 189.637 94.8133 188.784C94.1306 187.909 93.1813 187.472 91.9653 187.472C91.2826 187.472 90.6746 187.611 90.1413 187.888C89.6293 188.144 89.1919 188.485 88.8293 188.912C88.4666 189.339 88.1786 189.829 87.9653 190.384C87.7733 190.939 87.6453 191.504 87.5813 192.08H95.8373ZM110.448 202.384C109.104 202.384 107.92 202.171 106.896 201.744C105.894 201.317 105.04 200.72 104.336 199.952C103.654 199.184 103.142 198.277 102.8 197.232C102.459 196.165 102.288 194.992 102.288 193.712C102.288 192.432 102.47 191.259 102.832 190.192C103.216 189.125 103.75 188.208 104.432 187.44C105.115 186.651 105.947 186.043 106.928 185.616C107.931 185.168 109.04 184.944 110.256 184.944C111.003 184.944 111.75 185.008 112.496 185.136C113.243 185.264 113.958 185.467 114.64 185.744L113.968 188.272C113.52 188.059 112.998 187.888 112.4 187.76C111.824 187.632 111.206 187.568 110.544 187.568C108.88 187.568 107.6 188.091 106.704 189.136C105.83 190.181 105.392 191.707 105.392 193.712C105.392 194.608 105.488 195.429 105.68 196.176C105.894 196.923 106.214 197.563 106.64 198.096C107.088 198.629 107.654 199.045 108.336 199.344C109.019 199.621 109.851 199.76 110.832 199.76C111.622 199.76 112.336 199.685 112.976 199.536C113.616 199.387 114.118 199.227 114.48 199.056L114.896 201.552C114.726 201.659 114.48 201.765 114.16 201.872C113.84 201.957 113.478 202.032 113.072 202.096C112.667 202.181 112.23 202.245 111.76 202.288C111.312 202.352 110.875 202.384 110.448 202.384ZM120.875 185.36H127.179V187.856H120.875V195.536C120.875 196.368 120.939 197.061 121.067 197.616C121.195 198.149 121.387 198.576 121.643 198.896C121.899 199.195 122.219 199.408 122.603 199.536C122.987 199.664 123.435 199.728 123.947 199.728C124.843 199.728 125.558 199.632 126.091 199.44C126.646 199.227 127.03 199.077 127.243 198.992L127.819 201.456C127.521 201.605 126.998 201.787 126.251 202C125.505 202.235 124.651 202.352 123.691 202.352C122.561 202.352 121.622 202.213 120.875 201.936C120.15 201.637 119.563 201.2 119.115 200.624C118.667 200.048 118.347 199.344 118.155 198.512C117.985 197.659 117.899 196.677 117.899 195.568V180.72L120.875 180.208V185.36ZM129.726 193.712C129.726 192.24 129.939 190.96 130.366 189.872C130.792 188.763 131.358 187.845 132.062 187.12C132.766 186.395 133.576 185.851 134.494 185.488C135.411 185.125 136.35 184.944 137.31 184.944C139.55 184.944 141.267 185.648 142.462 187.056C143.656 188.443 144.254 190.565 144.254 193.424C144.254 193.552 144.254 193.723 144.254 193.936C144.254 194.128 144.243 194.309 144.222 194.48H132.83C132.958 196.208 133.459 197.52 134.334 198.416C135.208 199.312 136.574 199.76 138.43 199.76C139.475 199.76 140.35 199.675 141.054 199.504C141.779 199.312 142.323 199.131 142.686 198.96L143.102 201.456C142.739 201.648 142.099 201.851 141.182 202.064C140.286 202.277 139.262 202.384 138.11 202.384C136.659 202.384 135.4 202.171 134.334 201.744C133.288 201.296 132.424 200.688 131.742 199.92C131.059 199.152 130.547 198.245 130.206 197.2C129.886 196.133 129.726 194.971 129.726 193.712ZM141.15 192.08C141.171 190.736 140.83 189.637 140.126 188.784C139.443 187.909 138.494 187.472 137.278 187.472C136.595 187.472 135.987 187.611 135.454 187.888C134.942 188.144 134.504 188.485 134.142 188.912C133.779 189.339 133.491 189.829 133.278 190.384C133.086 190.939 132.958 191.504 132.894 192.08H141.15ZM159.281 188.88C158.918 188.581 158.395 188.293 157.713 188.016C157.03 187.739 156.283 187.6 155.473 187.6C154.619 187.6 153.883 187.76 153.265 188.08C152.667 188.379 152.177 188.805 151.793 189.36C151.409 189.893 151.131 190.533 150.961 191.28C150.79 192.027 150.705 192.827 150.705 193.68C150.705 195.621 151.185 197.125 152.145 198.192C153.105 199.237 154.385 199.76 155.985 199.76C156.795 199.76 157.467 199.728 158.001 199.664C158.555 199.579 158.982 199.493 159.281 199.408V188.88ZM159.281 177.68L162.257 177.168V201.52C161.574 201.712 160.699 201.904 159.633 202.096C158.566 202.288 157.339 202.384 155.953 202.384C154.673 202.384 153.521 202.181 152.497 201.776C151.473 201.371 150.598 200.795 149.873 200.048C149.147 199.301 148.582 198.395 148.177 197.328C147.793 196.24 147.601 195.024 147.601 193.68C147.601 192.4 147.761 191.227 148.081 190.16C148.422 189.093 148.913 188.176 149.553 187.408C150.193 186.64 150.971 186.043 151.889 185.616C152.827 185.189 153.894 184.976 155.089 184.976C156.049 184.976 156.891 185.104 157.617 185.36C158.363 185.616 158.918 185.861 159.281 186.096V177.68ZM192.891 179.824C192.08 182.171 191.301 184.347 190.555 186.352C189.829 188.336 189.115 190.224 188.411 192.016C187.707 193.808 187.003 195.525 186.299 197.168C185.616 198.789 184.912 200.4 184.187 202H181.275C180.549 200.4 179.835 198.789 179.131 197.168C178.448 195.525 177.744 193.808 177.019 192.016C176.315 190.224 175.589 188.336 174.843 186.352C174.096 184.347 173.328 182.171 172.539 179.824H175.963C177.115 183.195 178.245 186.437 179.355 189.552C180.464 192.667 181.605 195.589 182.779 198.32C183.952 195.611 185.093 192.699 186.203 189.584C187.312 186.448 188.432 183.195 189.563 179.824H192.891ZM200.598 199.856C201.302 199.856 201.921 199.845 202.454 199.824C203.009 199.781 203.468 199.717 203.83 199.632V194.672C203.617 194.565 203.265 194.48 202.774 194.416C202.305 194.331 201.729 194.288 201.046 194.288C200.598 194.288 200.118 194.32 199.606 194.384C199.116 194.448 198.657 194.587 198.23 194.8C197.825 194.992 197.484 195.269 197.206 195.632C196.929 195.973 196.79 196.432 196.79 197.008C196.79 198.075 197.132 198.821 197.814 199.248C198.497 199.653 199.425 199.856 200.598 199.856ZM200.342 184.944C201.537 184.944 202.54 185.104 203.35 185.424C204.182 185.723 204.844 186.16 205.334 186.736C205.846 187.291 206.209 187.963 206.422 188.752C206.636 189.52 206.742 190.373 206.742 191.312V201.712C206.486 201.755 206.124 201.819 205.654 201.904C205.206 201.968 204.694 202.032 204.118 202.096C203.542 202.16 202.913 202.213 202.23 202.256C201.569 202.32 200.908 202.352 200.246 202.352C199.308 202.352 198.444 202.256 197.654 202.064C196.865 201.872 196.182 201.573 195.606 201.168C195.03 200.741 194.582 200.187 194.262 199.504C193.942 198.821 193.782 198 193.782 197.04C193.782 196.123 193.964 195.333 194.326 194.672C194.71 194.011 195.222 193.477 195.862 193.072C196.502 192.667 197.249 192.368 198.102 192.176C198.956 191.984 199.852 191.888 200.79 191.888C201.089 191.888 201.398 191.909 201.718 191.952C202.038 191.973 202.337 192.016 202.614 192.08C202.913 192.123 203.169 192.165 203.382 192.208C203.596 192.251 203.745 192.283 203.83 192.304V191.472C203.83 190.981 203.777 190.501 203.67 190.032C203.564 189.541 203.372 189.115 203.094 188.752C202.817 188.368 202.433 188.069 201.942 187.856C201.473 187.621 200.854 187.504 200.086 187.504C199.105 187.504 198.241 187.579 197.494 187.728C196.769 187.856 196.225 187.995 195.862 188.144L195.51 185.68C195.894 185.509 196.534 185.349 197.43 185.2C198.326 185.029 199.297 184.944 200.342 184.944ZM216.677 202.32C214.842 202.277 213.541 201.883 212.773 201.136C212.005 200.389 211.621 199.227 211.621 197.648V177.68L214.597 177.168V197.168C214.597 197.659 214.64 198.064 214.725 198.384C214.81 198.704 214.949 198.96 215.141 199.152C215.333 199.344 215.589 199.493 215.909 199.6C216.229 199.685 216.624 199.76 217.093 199.824L216.677 202.32ZM233.683 201.52C233 201.691 232.094 201.872 230.963 202.064C229.854 202.256 228.563 202.352 227.091 202.352C225.811 202.352 224.734 202.171 223.859 201.808C222.984 201.424 222.28 200.891 221.747 200.208C221.214 199.525 220.83 198.725 220.595 197.808C220.36 196.869 220.243 195.835 220.243 194.704V185.36H223.219V194.064C223.219 196.091 223.539 197.541 224.179 198.416C224.819 199.291 225.896 199.728 227.411 199.728C227.731 199.728 228.062 199.717 228.403 199.696C228.744 199.675 229.064 199.653 229.363 199.632C229.662 199.589 229.928 199.557 230.163 199.536C230.419 199.493 230.6 199.451 230.707 199.408V185.36H233.683V201.52ZM237.882 193.712C237.882 192.24 238.095 190.96 238.522 189.872C238.949 188.763 239.514 187.845 240.218 187.12C240.922 186.395 241.733 185.851 242.65 185.488C243.567 185.125 244.506 184.944 245.466 184.944C247.706 184.944 249.423 185.648 250.618 187.056C251.813 188.443 252.41 190.565 252.41 193.424C252.41 193.552 252.41 193.723 252.41 193.936C252.41 194.128 252.399 194.309 252.378 194.48H240.986C241.114 196.208 241.615 197.52 242.49 198.416C243.365 199.312 244.73 199.76 246.586 199.76C247.631 199.76 248.506 199.675 249.21 199.504C249.935 199.312 250.479 199.131 250.842 198.96L251.258 201.456C250.895 201.648 250.255 201.851 249.338 202.064C248.442 202.277 247.418 202.384 246.266 202.384C244.815 202.384 243.557 202.171 242.49 201.744C241.445 201.296 240.581 200.688 239.898 199.92C239.215 199.152 238.703 198.245 238.362 197.2C238.042 196.133 237.882 194.971 237.882 193.712ZM249.306 192.08C249.327 190.736 248.986 189.637 248.282 188.784C247.599 187.909 246.65 187.472 245.434 187.472C244.751 187.472 244.143 187.611 243.61 187.888C243.098 188.144 242.661 188.485 242.298 188.912C241.935 189.339 241.647 189.829 241.434 190.384C241.242 190.939 241.114 191.504 241.05 192.08H249.306ZM259.255 200.542C259.255 201.028 259.093 201.451 258.769 201.811C258.445 202.171 258.004 202.351 257.446 202.351C256.888 202.351 256.447 202.171 256.123 201.811C255.799 201.451 255.637 201.028 255.637 200.542C255.637 200.056 255.799 199.633 256.123 199.273C256.447 198.913 256.888 198.733 257.446 198.733C258.004 198.733 258.445 198.913 258.769 199.273C259.093 199.633 259.255 200.056 259.255 200.542ZM259.255 189.769C259.255 190.255 259.093 190.678 258.769 191.038C258.445 191.398 258.004 191.578 257.446 191.578C256.888 191.578 256.447 191.398 256.123 191.038C255.799 190.678 255.637 190.255 255.637 189.769C255.637 189.283 255.799 188.86 256.123 188.5C256.447 188.14 256.888 187.96 257.446 187.96C258.004 187.96 258.445 188.14 258.769 188.5C259.093 188.86 259.255 189.283 259.255 189.769ZM25.08 226.52C25.422 225.728 25.89 224.81 26.484 223.766C27.078 222.704 27.744 221.615 28.482 220.499C29.238 219.383 30.039 218.285 30.885 217.205C31.749 216.125 32.613 215.153 33.477 214.289H35.88V226.169H38.094V228.221H35.88V233H33.45V228.221H25.08V226.52ZM33.45 217.259C32.91 217.835 32.361 218.483 31.803 219.203C31.263 219.905 30.732 220.643 30.21 221.417C29.688 222.191 29.193 222.983 28.725 223.793C28.275 224.603 27.87 225.395 27.51 226.169H33.45V217.259ZM40.5902 223.631C40.5902 220.499 41.1392 218.087 42.2372 216.395C43.3532 214.703 44.8922 213.857 46.8542 213.857C48.8162 213.857 50.3462 214.703 51.4442 216.395C52.5602 218.087 53.1182 220.499 53.1182 223.631C53.1182 226.763 52.5602 229.175 51.4442 230.867C50.3462 232.559 48.8162 233.405 46.8542 233.405C44.8922 233.405 43.3532 232.559 42.2372 230.867C41.1392 229.175 40.5902 226.763 40.5902 223.631ZM50.4722 223.631C50.4722 222.605 50.4092 221.633 50.2832 220.715C50.1752 219.797 49.9772 218.996 49.6892 218.312C49.4192 217.628 49.0502 217.088 48.5822 216.692C48.1142 216.278 47.5382 216.071 46.8542 216.071C46.1702 216.071 45.5942 216.278 45.1262 216.692C44.6582 217.088 44.2802 217.628 43.9922 218.312C43.7222 218.996 43.5242 219.797 43.3982 220.715C43.2902 221.633 43.2362 222.605 43.2362 223.631C43.2362 224.657 43.2902 225.629 43.3982 226.547C43.5242 227.465 43.7222 228.266 43.9922 228.95C44.2802 229.634 44.6582 230.183 45.1262 230.597C45.5942 230.993 46.1702 231.191 46.8542 231.191C47.5382 231.191 48.1142 230.993 48.5822 230.597C49.0502 230.183 49.4192 229.634 49.6892 228.95C49.9772 228.266 50.1752 227.465 50.2832 226.547C50.4092 225.629 50.4722 224.657 50.4722 223.631ZM60.5825 231.164C62.1845 231.164 63.3275 230.849 64.0115 230.219C64.7135 229.589 65.0645 228.743 65.0645 227.681C65.0645 226.997 64.9205 226.421 64.6325 225.953C64.3445 225.485 63.9665 225.116 63.4985 224.846C63.0305 224.558 62.4815 224.36 61.8515 224.252C61.2395 224.126 60.6095 224.063 59.9615 224.063H59.3135V222.011H60.2045C60.6545 222.011 61.1135 221.966 61.5815 221.876C62.0675 221.786 62.5085 221.624 62.9045 221.39C63.3005 221.156 63.6245 220.841 63.8765 220.445C64.1285 220.031 64.2545 219.518 64.2545 218.906C64.2545 218.402 64.1645 217.97 63.9845 217.61C63.8045 217.25 63.5615 216.953 63.2555 216.719C62.9675 216.485 62.6255 216.323 62.2295 216.233C61.8515 216.125 61.4465 216.071 61.0145 216.071C60.1505 216.071 59.4125 216.197 58.8005 216.449C58.2065 216.701 57.7025 216.962 57.2885 217.232L56.3165 215.315C56.5325 215.171 56.8025 215.018 57.1265 214.856C57.4685 214.676 57.8465 214.514 58.2605 214.37C58.6745 214.226 59.1155 214.109 59.5835 214.019C60.0695 213.911 60.5735 213.857 61.0955 213.857C62.0855 213.857 62.9405 213.983 63.6605 214.235C64.3805 214.469 64.9745 214.811 65.4425 215.261C65.9105 215.693 66.2615 216.215 66.4955 216.827C66.7295 217.421 66.8465 218.069 66.8465 218.771C66.8465 219.743 66.5675 220.58 66.0095 221.282C65.4515 221.966 64.7765 222.488 63.9845 222.848C64.4705 222.992 64.9385 223.199 65.3885 223.469C65.8385 223.739 66.2255 224.081 66.5495 224.495C66.8915 224.909 67.1615 225.386 67.3595 225.926C67.5755 226.466 67.6835 227.069 67.6835 227.735C67.6835 228.545 67.5395 229.301 67.2515 230.003C66.9815 230.687 66.5495 231.281 65.9555 231.785C65.3795 232.289 64.6505 232.685 63.7685 232.973C62.8865 233.261 61.8425 233.405 60.6365 233.405C60.1685 233.405 59.6825 233.369 59.1785 233.297C58.6925 233.225 58.2335 233.135 57.8015 233.027C57.3695 232.919 56.9915 232.811 56.6675 232.703C56.3435 232.595 56.1095 232.505 55.9655 232.433L56.4515 230.246C56.7575 230.39 57.2615 230.579 57.9635 230.813C58.6835 231.047 59.5565 231.164 60.5825 231.164ZM74.8507 231.542C74.8507 232.028 74.6887 232.451 74.3647 232.811C74.0407 233.171 73.5997 233.351 73.0417 233.351C72.4837 233.351 72.0427 233.171 71.7187 232.811C71.3947 232.451 71.2327 232.028 71.2327 231.542C71.2327 231.056 71.3947 230.633 71.7187 230.273C72.0427 229.913 72.4837 229.733 73.0417 229.733C73.5997 229.733 74.0407 229.913 74.3647 230.273C74.6887 230.633 74.8507 231.056 74.8507 231.542ZM82.4672 231.164C84.0692 231.164 85.2122 230.849 85.8962 230.219C86.5982 229.589 86.9492 228.743 86.9492 227.681C86.9492 226.997 86.8052 226.421 86.5172 225.953C86.2292 225.485 85.8512 225.116 85.3832 224.846C84.9152 224.558 84.3662 224.36 83.7362 224.252C83.1242 224.126 82.4942 224.063 81.8462 224.063H81.1982V222.011H82.0892C82.5392 222.011 82.9982 221.966 83.4662 221.876C83.9522 221.786 84.3932 221.624 84.7892 221.39C85.1852 221.156 85.5092 220.841 85.7612 220.445C86.0132 220.031 86.1392 219.518 86.1392 218.906C86.1392 218.402 86.0492 217.97 85.8692 217.61C85.6892 217.25 85.4462 216.953 85.1402 216.719C84.8522 216.485 84.5102 216.323 84.1142 216.233C83.7362 216.125 83.3312 216.071 82.8992 216.071C82.0352 216.071 81.2972 216.197 80.6852 216.449C80.0912 216.701 79.5872 216.962 79.1732 217.232L78.2012 215.315C78.4172 215.171 78.6872 215.018 79.0112 214.856C79.3532 214.676 79.7312 214.514 80.1452 214.37C80.5592 214.226 81.0002 214.109 81.4682 214.019C81.9542 213.911 82.4582 213.857 82.9802 213.857C83.9702 213.857 84.8252 213.983 85.5452 214.235C86.2652 214.469 86.8592 214.811 87.3272 215.261C87.7952 215.693 88.1462 216.215 88.3802 216.827C88.6142 217.421 88.7312 218.069 88.7312 218.771C88.7312 219.743 88.4522 220.58 87.8942 221.282C87.3362 221.966 86.6612 222.488 85.8692 222.848C86.3552 222.992 86.8232 223.199 87.2732 223.469C87.7232 223.739 88.1102 224.081 88.4342 224.495C88.7762 224.909 89.0462 225.386 89.2442 225.926C89.4602 226.466 89.5682 227.069 89.5682 227.735C89.5682 228.545 89.4242 229.301 89.1362 230.003C88.8662 230.687 88.4342 231.281 87.8402 231.785C87.2642 232.289 86.5352 232.685 85.6532 232.973C84.7712 233.261 83.7272 233.405 82.5212 233.405C82.0532 233.405 81.5672 233.369 81.0632 233.297C80.5772 233.225 80.1182 233.135 79.6862 233.027C79.2542 232.919 78.8762 232.811 78.5522 232.703C78.2282 232.595 77.9942 232.505 77.8502 232.433L78.3362 230.246C78.6422 230.39 79.1462 230.579 79.8482 230.813C80.5682 231.047 81.4412 231.164 82.4672 231.164ZM92.6855 226.52C93.0275 225.728 93.4955 224.81 94.0895 223.766C94.6835 222.704 95.3495 221.615 96.0875 220.499C96.8435 219.383 97.6445 218.285 98.4905 217.205C99.3545 216.125 100.218 215.153 101.082 214.289H103.485V226.169H105.699V228.221H103.485V233H101.055V228.221H92.6855V226.52ZM101.055 217.259C100.515 217.835 99.9665 218.483 99.4085 219.203C98.8685 219.905 98.3375 220.643 97.8155 221.417C97.2935 222.191 96.7985 222.983 96.3305 223.793C95.8805 224.603 95.4755 225.395 95.1155 226.169H101.055V217.259ZM119.975 233.3C119.068 233.3 118.281 233.16 117.615 232.88C116.948 232.6 116.401 232.22 115.975 231.74C115.548 231.247 115.228 230.667 115.015 230C114.815 229.333 114.715 228.613 114.715 227.84V219.14H116.655V227.62C116.655 229.007 116.961 230.013 117.575 230.64C118.188 231.267 118.988 231.58 119.975 231.58C120.468 231.58 120.915 231.507 121.315 231.36C121.728 231.2 122.081 230.96 122.375 230.64C122.668 230.32 122.895 229.913 123.055 229.42C123.215 228.913 123.295 228.313 123.295 227.62V219.14H125.235V227.84C125.235 228.613 125.128 229.333 124.915 230C124.715 230.667 124.395 231.247 123.955 231.74C123.528 232.22 122.981 232.6 122.315 232.88C121.661 233.16 120.881 233.3 119.975 233.3ZM131.804 231.62C133.831 231.62 134.844 230.927 134.844 229.54C134.844 229.113 134.751 228.753 134.564 228.46C134.391 228.153 134.151 227.893 133.844 227.68C133.538 227.453 133.184 227.26 132.784 227.1C132.398 226.94 131.984 226.78 131.544 226.62C131.038 226.447 130.558 226.253 130.104 226.04C129.651 225.813 129.258 225.553 128.924 225.26C128.591 224.953 128.324 224.593 128.124 224.18C127.938 223.767 127.844 223.267 127.844 222.68C127.844 221.467 128.258 220.52 129.084 219.84C129.911 219.16 131.051 218.82 132.504 218.82C133.344 218.82 134.104 218.913 134.784 219.1C135.478 219.273 135.984 219.467 136.304 219.68L135.684 221.26C135.404 221.087 134.984 220.92 134.424 220.76C133.878 220.587 133.238 220.5 132.504 220.5C132.131 220.5 131.784 220.54 131.464 220.62C131.144 220.7 130.864 220.82 130.624 220.98C130.384 221.14 130.191 221.347 130.044 221.6C129.911 221.84 129.844 222.127 129.844 222.46C129.844 222.833 129.918 223.147 130.064 223.4C130.211 223.653 130.418 223.88 130.684 224.08C130.951 224.267 131.258 224.44 131.604 224.6C131.964 224.76 132.358 224.92 132.784 225.08C133.384 225.32 133.931 225.56 134.424 225.8C134.931 226.04 135.364 226.327 135.724 226.66C136.098 226.993 136.384 227.393 136.584 227.86C136.784 228.313 136.884 228.867 136.884 229.52C136.884 230.733 136.438 231.667 135.544 232.32C134.664 232.973 133.418 233.3 131.804 233.3C131.258 233.3 130.751 233.26 130.284 233.18C129.831 233.113 129.424 233.033 129.064 232.94C128.704 232.833 128.391 232.727 128.124 232.62C127.871 232.5 127.671 232.4 127.524 232.32L128.104 230.72C128.411 230.893 128.878 231.087 129.504 231.3C130.131 231.513 130.898 231.62 131.804 231.62ZM150.609 226.06C150.609 227.26 150.422 228.307 150.049 229.2C149.675 230.08 149.149 230.813 148.469 231.4C147.789 231.973 146.975 232.407 146.029 232.7C145.082 232.98 144.042 233.12 142.909 233.12C142.349 233.12 141.729 233.093 141.049 233.04C140.382 233 139.775 232.913 139.229 232.78V219.34C139.775 219.207 140.382 219.12 141.049 219.08C141.729 219.027 142.349 219 142.909 219C144.042 219 145.082 219.147 146.029 219.44C146.975 219.72 147.789 220.153 148.469 220.74C149.149 221.313 149.675 222.047 150.049 222.94C150.422 223.82 150.609 224.86 150.609 226.06ZM143.069 231.42C144.909 231.42 146.282 230.953 147.189 230.02C148.095 229.073 148.549 227.753 148.549 226.06C148.549 224.367 148.095 223.053 147.189 222.12C146.282 221.173 144.909 220.7 143.069 220.7C142.522 220.7 142.095 220.707 141.789 220.72C141.495 220.733 141.289 220.747 141.169 220.76V231.36C141.289 231.373 141.495 231.387 141.789 231.4C142.095 231.413 142.522 231.42 143.069 231.42Z" fill="white"/>
<defs>
<filter id="filter0_d_45_254" x="0.2" y="0.2" width="413.6" height="263.6" filterUnits="userSpaceOnUse" color-interpolation-filters="sRGB">
<feFlood flood-opacity="0" result="BackgroundImageFix"/>
<feColorMatrix in="SourceAlpha" type="matrix" values="0 0 0 0 0 0 0 0 0 0 0 0 0 0 0 0 0 0 127 0" result="hardAlpha"/>
<feOffset dy="4"/>
<feGaussianBlur stdDeviation="3.4"/>
<feComposite in2="hardAlpha" operator="out"/>
<feColorMatrix type="matrix" values="0 0 0 0 0 0 0 0 0 0 0 0 0 0 0 0 0 0 0.43 0"/>
<feBlend mode="normal" in2="BackgroundImageFix" result="effect1_dropShadow_45_254"/>
<feBlend mode="normal" in="SourceGraphic" in2="effect1_dropShadow_45_254" result="shape"/>
</filter>
</defs>
</svg>
