<svg width="196" height="121" viewBox="0 0 196 121" fill="none" xmlns="http://www.w3.org/2000/svg">
<rect width="196" height="121" rx="20" fill="#242424"/>
<path d="M51.632 50.596V54.32H45.78V70H41.412V54.32H35.56V50.596H51.632ZM65.8298 62.608C65.8298 63.7653 65.6618 64.8293 65.3258 65.8C64.9898 66.752 64.5044 67.5733 63.8698 68.264C63.2351 68.936 62.4698 69.4587 61.5738 69.832C60.6964 70.2053 59.7071 70.392 58.6058 70.392C57.5231 70.392 56.5338 70.2053 55.6378 69.832C54.7604 69.4587 54.0044 68.936 53.3698 68.264C52.7351 67.5733 52.2404 66.752 51.8858 65.8C51.5311 64.8293 51.3538 63.7653 51.3538 62.608C51.3538 61.4507 51.5311 60.396 51.8858 59.444C52.2591 58.492 52.7631 57.68 53.3978 57.008C54.0511 56.336 54.8164 55.8133 55.6938 55.44C56.5898 55.0667 57.5604 54.88 58.6058 54.88C59.6698 54.88 60.6404 55.0667 61.5178 55.44C62.4138 55.8133 63.1791 56.336 63.8138 57.008C64.4484 57.68 64.9431 58.492 65.2978 59.444C65.6524 60.396 65.8298 61.4507 65.8298 62.608ZM61.5738 62.608C61.5738 61.32 61.3124 60.312 60.7898 59.584C60.2858 58.8373 59.5578 58.464 58.6058 58.464C57.6538 58.464 56.9164 58.8373 56.3938 59.584C55.8711 60.312 55.6098 61.32 55.6098 62.608C55.6098 63.896 55.8711 64.9227 56.3938 65.688C56.9164 66.4347 57.6538 66.808 58.6058 66.808C59.5578 66.808 60.2858 66.4347 60.7898 65.688C61.3124 64.9227 61.5738 63.896 61.5738 62.608ZM78.4976 62.748C78.4976 61.46 78.2082 60.4333 77.6296 59.668C77.0509 58.884 76.1922 58.492 75.0536 58.492C74.6802 58.492 74.3349 58.5107 74.0176 58.548C73.7002 58.5667 73.4389 58.5947 73.2336 58.632V66.164C73.4949 66.332 73.8309 66.472 74.2416 66.584C74.6709 66.696 75.1002 66.752 75.5296 66.752C77.5082 66.752 78.4976 65.4173 78.4976 62.748ZM82.7536 62.636C82.7536 63.7747 82.6136 64.8107 82.3336 65.744C82.0536 66.6773 81.6429 67.48 81.1016 68.152C80.5602 68.824 79.8882 69.3467 79.0856 69.72C78.2829 70.0933 77.3589 70.28 76.3136 70.28C75.7349 70.28 75.1936 70.224 74.6896 70.112C74.1856 70 73.7002 69.8413 73.2336 69.636V75.18H69.0616V55.776C69.4349 55.664 69.8642 55.5613 70.3496 55.468C70.8349 55.356 71.3389 55.2627 71.8616 55.188C72.4029 55.1133 72.9442 55.0573 73.4856 55.02C74.0456 54.964 74.5776 54.936 75.0816 54.936C76.2949 54.936 77.3776 55.1227 78.3296 55.496C79.2816 55.8507 80.0842 56.364 80.7376 57.036C81.3909 57.6893 81.8856 58.492 82.2216 59.444C82.5762 60.396 82.7536 61.46 82.7536 62.636ZM105.987 70C104.736 67.7787 103.383 65.5853 101.927 63.42C100.471 61.2547 98.9212 59.2107 97.2786 57.288V70H92.9666V50.596H96.5226C97.1386 51.212 97.8199 51.968 98.5666 52.864C99.3132 53.76 100.069 54.7213 100.835 55.748C101.619 56.756 102.393 57.8107 103.159 58.912C103.924 59.9947 104.643 61.04 105.315 62.048V50.596H109.655V70H105.987ZM113.151 62.748C113.151 61.4413 113.347 60.3027 113.739 59.332C114.149 58.3427 114.681 57.5213 115.335 56.868C115.988 56.2147 116.735 55.72 117.575 55.384C118.433 55.048 119.311 54.88 120.207 54.88C122.297 54.88 123.949 55.524 125.163 56.812C126.376 58.0813 126.983 59.9573 126.983 62.44C126.983 62.6827 126.973 62.9533 126.955 63.252C126.936 63.532 126.917 63.784 126.899 64.008H117.435C117.528 64.8667 117.929 65.548 118.639 66.052C119.348 66.556 120.3 66.808 121.495 66.808C122.26 66.808 123.007 66.7427 123.735 66.612C124.481 66.4627 125.088 66.2853 125.555 66.08L126.115 69.468C125.891 69.58 125.592 69.692 125.219 69.804C124.845 69.916 124.425 70.0093 123.959 70.084C123.511 70.1773 123.025 70.252 122.503 70.308C121.98 70.364 121.457 70.392 120.935 70.392C119.609 70.392 118.452 70.196 117.463 69.804C116.492 69.412 115.68 68.88 115.027 68.208C114.392 67.5173 113.916 66.7053 113.599 65.772C113.3 64.8387 113.151 63.8307 113.151 62.748ZM122.951 61.152C122.932 60.7973 122.867 60.452 122.755 60.116C122.661 59.78 122.503 59.4813 122.279 59.22C122.073 58.9587 121.803 58.744 121.467 58.576C121.149 58.408 120.748 58.324 120.263 58.324C119.796 58.324 119.395 58.408 119.059 58.576C118.723 58.7253 118.443 58.9307 118.219 59.192C117.995 59.4533 117.817 59.7613 117.687 60.116C117.575 60.452 117.491 60.7973 117.435 61.152H122.951ZM139.162 61.544C138.789 62.9627 138.388 64.372 137.958 65.772C137.548 67.172 137.109 68.5813 136.642 70H133.394C133.058 69.216 132.694 68.2827 132.302 67.2C131.91 66.1173 131.5 64.9413 131.07 63.672C130.66 62.384 130.23 61.0307 129.782 59.612C129.353 58.1747 128.933 56.728 128.522 55.272H132.918C133.068 55.944 133.226 56.6813 133.394 57.484C133.581 58.268 133.768 59.08 133.954 59.92C134.16 60.76 134.365 61.6093 134.57 62.468C134.794 63.308 135.018 64.12 135.242 64.904C135.485 64.0827 135.718 63.2427 135.942 62.384C136.185 61.5253 136.409 60.6853 136.614 59.864C136.838 59.024 137.044 58.2213 137.23 57.456C137.436 56.672 137.613 55.944 137.762 55.272H140.786C140.936 55.944 141.104 56.672 141.29 57.456C141.477 58.2213 141.673 59.024 141.878 59.864C142.084 60.6853 142.298 61.5253 142.522 62.384C142.746 63.2427 142.98 64.0827 143.222 64.904C143.446 64.12 143.67 63.308 143.894 62.468C144.118 61.6093 144.324 60.76 144.51 59.92C144.716 59.08 144.902 58.268 145.07 57.484C145.257 56.6813 145.425 55.944 145.574 55.272H149.914C149.504 56.728 149.074 58.1747 148.626 59.612C148.197 61.0307 147.768 62.384 147.338 63.672C146.928 64.9413 146.517 66.1173 146.106 67.2C145.714 68.2827 145.35 69.216 145.014 70H141.766C141.3 68.5813 140.842 67.172 140.394 65.772C139.946 64.372 139.536 62.9627 139.162 61.544ZM156.387 67.004C157.153 67.004 157.694 66.9293 158.011 66.78C158.329 66.6307 158.487 66.3413 158.487 65.912C158.487 65.576 158.282 65.2867 157.871 65.044C157.461 64.7827 156.835 64.4933 155.995 64.176C155.342 63.9333 154.745 63.6813 154.203 63.42C153.681 63.1587 153.233 62.8507 152.859 62.496C152.486 62.1227 152.197 61.684 151.991 61.18C151.786 60.676 151.683 60.0693 151.683 59.36C151.683 57.9787 152.197 56.8867 153.223 56.084C154.25 55.2813 155.659 54.88 157.451 54.88C158.347 54.88 159.206 54.964 160.027 55.132C160.849 55.2813 161.502 55.4493 161.987 55.636L161.259 58.884C160.774 58.716 160.242 58.5667 159.663 58.436C159.103 58.3053 158.469 58.24 157.759 58.24C156.453 58.24 155.799 58.604 155.799 59.332C155.799 59.5 155.827 59.6493 155.883 59.78C155.939 59.9107 156.051 60.0413 156.219 60.172C156.387 60.284 156.611 60.4147 156.891 60.564C157.19 60.6947 157.563 60.844 158.011 61.012C158.926 61.348 159.682 61.684 160.279 62.02C160.877 62.3373 161.343 62.692 161.679 63.084C162.034 63.4573 162.277 63.8773 162.407 64.344C162.557 64.8107 162.631 65.352 162.631 65.968C162.631 67.424 162.081 68.5253 160.979 69.272C159.897 70.0187 158.357 70.392 156.359 70.392C155.053 70.392 153.961 70.28 153.083 70.056C152.225 69.832 151.627 69.6453 151.291 69.496L151.991 66.108C152.701 66.388 153.429 66.612 154.175 66.78C154.922 66.9293 155.659 67.004 156.387 67.004Z" fill="white"/>
</svg>
