<svg width="196" height="120" viewBox="0 0 196 120" fill="none" xmlns="http://www.w3.org/2000/svg">
<rect width="196" height="120" rx="20" fill="#242424"/>
<path d="M67.825 48.668C68.441 48.668 68.945 48.6213 69.337 48.528C69.7476 48.416 70.0743 48.276 70.317 48.108C70.5596 47.9213 70.7276 47.7067 70.821 47.464C70.9143 47.2213 70.961 46.9507 70.961 46.652C70.961 46.0173 70.6623 45.4947 70.065 45.084C69.4676 44.6547 68.441 44.1973 66.985 43.712C66.3503 43.488 65.7156 43.236 65.081 42.956C64.4463 42.6573 63.877 42.2933 63.373 41.864C62.869 41.416 62.4583 40.884 62.141 40.268C61.8236 39.6333 61.665 38.868 61.665 37.972C61.665 37.076 61.833 36.2733 62.169 35.564C62.505 34.836 62.981 34.22 63.597 33.716C64.213 33.212 64.9596 32.8293 65.837 32.568C66.7143 32.288 67.7036 32.148 68.805 32.148C70.1116 32.148 71.241 32.288 72.193 32.568C73.145 32.848 73.929 33.156 74.545 33.492L73.285 36.936C72.7436 36.656 72.137 36.4133 71.465 36.208C70.8116 35.984 70.0183 35.872 69.085 35.872C68.0396 35.872 67.2836 36.0213 66.817 36.32C66.369 36.6 66.145 37.0387 66.145 37.636C66.145 37.9907 66.229 38.2893 66.397 38.532C66.565 38.7747 66.7983 38.9987 67.097 39.204C67.4143 39.3907 67.769 39.568 68.161 39.736C68.5716 39.8853 69.0196 40.044 69.505 40.212C70.513 40.5853 71.3903 40.9587 72.137 41.332C72.8836 41.6867 73.4996 42.1067 73.985 42.592C74.489 43.0773 74.8623 43.6467 75.105 44.3C75.3476 44.9533 75.469 45.7467 75.469 46.68C75.469 48.4907 74.8343 49.9 73.565 50.908C72.2956 51.8973 70.3823 52.392 67.825 52.392C66.9663 52.392 66.1916 52.336 65.501 52.224C64.8103 52.1307 64.1943 52.0093 63.653 51.86C63.1303 51.7107 62.673 51.552 62.281 51.384C61.9076 51.216 61.5903 51.0573 61.329 50.908L62.561 47.436C63.1396 47.7533 63.849 48.0427 64.689 48.304C65.5476 48.5467 66.593 48.668 67.825 48.668ZM78.4098 33.604L82.5818 32.932V37.272H87.5938V40.744H82.5818V45.924C82.5818 46.8013 82.7312 47.5013 83.0298 48.024C83.3472 48.5467 83.9725 48.808 84.9058 48.808C85.3538 48.808 85.8112 48.7707 86.2778 48.696C86.7632 48.6027 87.2018 48.4813 87.5938 48.332L88.1818 51.58C87.6778 51.7853 87.1178 51.9627 86.5018 52.112C85.8858 52.2613 85.1298 52.336 84.2338 52.336C83.0952 52.336 82.1525 52.1867 81.4058 51.888C80.6592 51.5707 80.0618 51.1413 79.6138 50.6C79.1658 50.04 78.8485 49.368 78.6618 48.584C78.4938 47.8 78.4098 46.932 78.4098 45.98V33.604ZM104.22 44.608C104.22 45.7653 104.052 46.8293 103.716 47.8C103.38 48.752 102.895 49.5733 102.26 50.264C101.626 50.936 100.86 51.4587 99.9644 51.832C99.087 52.2053 98.0977 52.392 96.9964 52.392C95.9137 52.392 94.9244 52.2053 94.0284 51.832C93.151 51.4587 92.395 50.936 91.7604 50.264C91.1257 49.5733 90.631 48.752 90.2764 47.8C89.9217 46.8293 89.7444 45.7653 89.7444 44.608C89.7444 43.4507 89.9217 42.396 90.2764 41.444C90.6497 40.492 91.1537 39.68 91.7884 39.008C92.4417 38.336 93.207 37.8133 94.0844 37.44C94.9804 37.0667 95.951 36.88 96.9964 36.88C98.0604 36.88 99.031 37.0667 99.9084 37.44C100.804 37.8133 101.57 38.336 102.204 39.008C102.839 39.68 103.334 40.492 103.688 41.444C104.043 42.396 104.22 43.4507 104.22 44.608ZM99.9644 44.608C99.9644 43.32 99.703 42.312 99.1804 41.584C98.6764 40.8373 97.9484 40.464 96.9964 40.464C96.0444 40.464 95.307 40.8373 94.7844 41.584C94.2617 42.312 94.0004 43.32 94.0004 44.608C94.0004 45.896 94.2617 46.9227 94.7844 47.688C95.307 48.4347 96.0444 48.808 96.9964 48.808C97.9484 48.808 98.6764 48.4347 99.1804 47.688C99.703 46.9227 99.9644 45.896 99.9644 44.608ZM106.752 44.636C106.752 43.572 106.92 42.5733 107.256 41.64C107.611 40.688 108.115 39.8667 108.768 39.176C109.422 38.4667 110.215 37.9067 111.148 37.496C112.082 37.0853 113.146 36.88 114.34 36.88C115.124 36.88 115.843 36.9547 116.496 37.104C117.15 37.2347 117.784 37.4307 118.4 37.692L117.532 41.024C117.14 40.8747 116.711 40.744 116.244 40.632C115.778 40.52 115.255 40.464 114.676 40.464C113.444 40.464 112.52 40.8467 111.904 41.612C111.307 42.3773 111.008 43.3853 111.008 44.636C111.008 45.9613 111.288 46.988 111.848 47.716C112.427 48.444 113.426 48.808 114.844 48.808C115.348 48.808 115.89 48.7613 116.468 48.668C117.047 48.5747 117.579 48.4253 118.064 48.22L118.652 51.636C118.167 51.8413 117.56 52.0187 116.832 52.168C116.104 52.3173 115.302 52.392 114.424 52.392C113.08 52.392 111.923 52.196 110.952 51.804C109.982 51.3933 109.179 50.8427 108.544 50.152C107.928 49.4613 107.471 48.6493 107.172 47.716C106.892 46.764 106.752 45.7373 106.752 44.636ZM125.624 42.592C126.035 42.144 126.455 41.6773 126.884 41.192C127.332 40.7067 127.762 40.2307 128.172 39.764C128.583 39.2787 128.966 38.8213 129.32 38.392C129.694 37.9627 130.011 37.5893 130.272 37.272H135.228C134.239 38.4107 133.268 39.5027 132.316 40.548C131.383 41.5747 130.356 42.6387 129.236 43.74C129.796 44.244 130.375 44.8507 130.972 45.56C131.57 46.2507 132.148 46.9693 132.708 47.716C133.268 48.4627 133.782 49.2093 134.248 49.956C134.715 50.7027 135.107 51.384 135.424 52H130.636C130.338 51.5147 129.992 50.9827 129.6 50.404C129.227 49.8067 128.826 49.2187 128.396 48.64C127.967 48.0427 127.51 47.4733 127.024 46.932C126.558 46.3907 126.091 45.9333 125.624 45.56V52H121.452V30.944L125.624 30.272V42.592ZM64.6521 64.596H69.0201V84H64.6521V64.596ZM76.7875 76.524C76.7875 77.812 77.0768 78.848 77.6555 79.632C78.2342 80.416 79.0928 80.808 80.2315 80.808C80.6048 80.808 80.9502 80.7987 81.2675 80.78C81.5848 80.7427 81.8462 80.7053 82.0515 80.668V73.08C81.7902 72.912 81.4448 72.772 81.0155 72.66C80.6048 72.548 80.1848 72.492 79.7555 72.492C77.7768 72.492 76.7875 73.836 76.7875 76.524ZM86.2235 83.524C85.8502 83.636 85.4208 83.748 84.9355 83.86C84.4502 83.9533 83.9368 84.0373 83.3955 84.112C82.8728 84.1867 82.3315 84.2427 81.7715 84.28C81.2302 84.336 80.7075 84.364 80.2035 84.364C78.9902 84.364 77.9075 84.1867 76.9555 83.832C76.0035 83.4773 75.2008 82.9733 74.5475 82.32C73.8942 81.648 73.3902 80.8453 73.0355 79.912C72.6995 78.96 72.5315 77.896 72.5315 76.72C72.5315 75.5253 72.6808 74.452 72.9795 73.5C73.2782 72.5293 73.7075 71.708 74.2675 71.036C74.8275 70.364 75.5088 69.8507 76.3115 69.496C77.1328 69.1413 78.0662 68.964 79.1115 68.964C79.6902 68.964 80.2035 69.02 80.6515 69.132C81.1182 69.244 81.5848 69.4027 82.0515 69.608V62.944L86.2235 62.272V83.524ZM89.4299 76.748C89.4299 75.4413 89.6259 74.3027 90.0179 73.332C90.4286 72.3427 90.9606 71.5213 91.6139 70.868C92.2673 70.2147 93.0139 69.72 93.8539 69.384C94.7126 69.048 95.5899 68.88 96.4859 68.88C98.5766 68.88 100.229 69.524 101.442 70.812C102.655 72.0813 103.262 73.9573 103.262 76.44C103.262 76.6827 103.253 76.9533 103.234 77.252C103.215 77.532 103.197 77.784 103.178 78.008H93.7139C93.8073 78.8667 94.2086 79.548 94.9179 80.052C95.6273 80.556 96.5793 80.808 97.7739 80.808C98.5393 80.808 99.2859 80.7427 100.014 80.612C100.761 80.4627 101.367 80.2853 101.834 80.08L102.394 83.468C102.17 83.58 101.871 83.692 101.498 83.804C101.125 83.916 100.705 84.0093 100.238 84.084C99.7899 84.1773 99.3046 84.252 98.7819 84.308C98.2593 84.364 97.7366 84.392 97.2139 84.392C95.8886 84.392 94.7313 84.196 93.7419 83.804C92.7713 83.412 91.9593 82.88 91.3059 82.208C90.6713 81.5173 90.1953 80.7053 89.8779 79.772C89.5793 78.8387 89.4299 77.8307 89.4299 76.748ZM99.2299 75.152C99.2113 74.7973 99.1459 74.452 99.0339 74.116C98.9406 73.78 98.7819 73.4813 98.5579 73.22C98.3526 72.9587 98.0819 72.744 97.7459 72.576C97.4286 72.408 97.0273 72.324 96.5419 72.324C96.0753 72.324 95.6739 72.408 95.3379 72.576C95.0019 72.7253 94.7219 72.9307 94.4979 73.192C94.2739 73.4533 94.0966 73.7613 93.9659 74.116C93.8539 74.452 93.7699 74.7973 93.7139 75.152H99.2299ZM112.109 81.088C112.52 81.088 112.912 81.0787 113.285 81.06C113.659 81.0413 113.957 81.0133 114.181 80.976V77.812C114.013 77.7747 113.761 77.7373 113.425 77.7C113.089 77.6627 112.781 77.644 112.501 77.644C112.109 77.644 111.736 77.672 111.381 77.728C111.045 77.7653 110.747 77.8493 110.485 77.98C110.224 78.1107 110.019 78.288 109.869 78.512C109.72 78.736 109.645 79.016 109.645 79.352C109.645 80.0053 109.86 80.4627 110.289 80.724C110.737 80.9667 111.344 81.088 112.109 81.088ZM111.773 68.88C113.005 68.88 114.032 69.02 114.853 69.3C115.675 69.58 116.328 69.9813 116.813 70.504C117.317 71.0267 117.672 71.6613 117.877 72.408C118.083 73.1547 118.185 73.9853 118.185 74.9V83.58C117.588 83.7107 116.757 83.86 115.693 84.028C114.629 84.2147 113.341 84.308 111.829 84.308C110.877 84.308 110.009 84.224 109.225 84.056C108.46 83.888 107.797 83.6173 107.237 83.244C106.677 82.852 106.248 82.348 105.949 81.732C105.651 81.116 105.501 80.36 105.501 79.464C105.501 78.6053 105.669 77.8773 106.005 77.28C106.36 76.6827 106.827 76.2067 107.405 75.852C107.984 75.4973 108.647 75.2453 109.393 75.096C110.14 74.928 110.915 74.844 111.717 74.844C112.259 74.844 112.735 74.872 113.145 74.928C113.575 74.9653 113.92 75.0213 114.181 75.096V74.704C114.181 73.9947 113.967 73.4253 113.537 72.996C113.108 72.5667 112.361 72.352 111.297 72.352C110.588 72.352 109.888 72.408 109.197 72.52C108.507 72.6133 107.909 72.7533 107.405 72.94L106.873 69.58C107.116 69.5053 107.415 69.4307 107.769 69.356C108.143 69.2627 108.544 69.188 108.973 69.132C109.403 69.0573 109.851 69.0013 110.317 68.964C110.803 68.908 111.288 68.88 111.773 68.88ZM126.186 81.004C126.951 81.004 127.493 80.9293 127.81 80.78C128.127 80.6307 128.286 80.3413 128.286 79.912C128.286 79.576 128.081 79.2867 127.67 79.044C127.259 78.7827 126.634 78.4933 125.794 78.176C125.141 77.9333 124.543 77.6813 124.002 77.42C123.479 77.1587 123.031 76.8507 122.658 76.496C122.285 76.1227 121.995 75.684 121.79 75.18C121.585 74.676 121.482 74.0693 121.482 73.36C121.482 71.9787 121.995 70.8867 123.022 70.084C124.049 69.2813 125.458 68.88 127.25 68.88C128.146 68.88 129.005 68.964 129.826 69.132C130.647 69.2813 131.301 69.4493 131.786 69.636L131.058 72.884C130.573 72.716 130.041 72.5667 129.462 72.436C128.902 72.3053 128.267 72.24 127.558 72.24C126.251 72.24 125.598 72.604 125.598 73.332C125.598 73.5 125.626 73.6493 125.682 73.78C125.738 73.9107 125.85 74.0413 126.018 74.172C126.186 74.284 126.41 74.4147 126.69 74.564C126.989 74.6947 127.362 74.844 127.81 75.012C128.725 75.348 129.481 75.684 130.078 76.02C130.675 76.3373 131.142 76.692 131.478 77.084C131.833 77.4573 132.075 77.8773 132.206 78.344C132.355 78.8107 132.43 79.352 132.43 79.968C132.43 81.424 131.879 82.5253 130.778 83.272C129.695 84.0187 128.155 84.392 126.158 84.392C124.851 84.392 123.759 84.28 122.882 84.056C122.023 83.832 121.426 83.6453 121.09 83.496L121.79 80.108C122.499 80.388 123.227 80.612 123.974 80.78C124.721 80.9293 125.458 81.004 126.186 81.004Z" fill="white"/>
</svg>
