<svg width="196" height="120" viewBox="0 0 196 120" fill="none" xmlns="http://www.w3.org/2000/svg">
<rect width="196" height="120" rx="20" fill="#242424"/>
<path d="M55.632 49.596V53.32H49.78V69H45.412V53.32H39.56V49.596H55.632ZM65.0938 57.968C64.7205 57.8747 64.2818 57.7813 63.7778 57.688C63.2738 57.576 62.7325 57.52 62.1538 57.52C61.8925 57.52 61.5751 57.548 61.2018 57.604C60.8471 57.6413 60.5765 57.688 60.3898 57.744V69H56.2178V55.056C56.9645 54.7947 57.8418 54.552 58.8498 54.328C59.8765 54.0853 61.0151 53.964 62.2658 53.964C62.4898 53.964 62.7605 53.9827 63.0778 54.02C63.3951 54.0387 63.7125 54.076 64.0298 54.132C64.3471 54.1693 64.6645 54.2253 64.9818 54.3C65.2991 54.356 65.5698 54.4307 65.7938 54.524L65.0938 57.968ZM67.0569 61.748C67.0569 60.4413 67.2529 59.3027 67.6449 58.332C68.0555 57.3427 68.5875 56.5213 69.2409 55.868C69.8942 55.2147 70.6409 54.72 71.4809 54.384C72.3395 54.048 73.2169 53.88 74.1129 53.88C76.2035 53.88 77.8555 54.524 79.0689 55.812C80.2822 57.0813 80.8889 58.9573 80.8889 61.44C80.8889 61.6827 80.8795 61.9533 80.8609 62.252C80.8422 62.532 80.8235 62.784 80.8049 63.008H71.3409C71.4342 63.8667 71.8355 64.548 72.5449 65.052C73.2542 65.556 74.2062 65.808 75.4009 65.808C76.1662 65.808 76.9129 65.7427 77.6409 65.612C78.3875 65.4627 78.9942 65.2853 79.4609 65.08L80.0209 68.468C79.7969 68.58 79.4982 68.692 79.1249 68.804C78.7515 68.916 78.3315 69.0093 77.8649 69.084C77.4169 69.1773 76.9315 69.252 76.4089 69.308C75.8862 69.364 75.3635 69.392 74.8409 69.392C73.5155 69.392 72.3582 69.196 71.3689 68.804C70.3982 68.412 69.5862 67.88 68.9329 67.208C68.2982 66.5173 67.8222 65.7053 67.5049 64.772C67.2062 63.8387 67.0569 62.8307 67.0569 61.748ZM76.8569 60.152C76.8382 59.7973 76.7729 59.452 76.6609 59.116C76.5675 58.78 76.4089 58.4813 76.1849 58.22C75.9795 57.9587 75.7089 57.744 75.3729 57.576C75.0555 57.408 74.6542 57.324 74.1689 57.324C73.7022 57.324 73.3009 57.408 72.9649 57.576C72.6289 57.7253 72.3489 57.9307 72.1249 58.192C71.9009 58.4533 71.7235 58.7613 71.5929 59.116C71.4809 59.452 71.3969 59.7973 71.3409 60.152H76.8569ZM84.1084 54.776C84.8178 54.5707 85.7324 54.384 86.8524 54.216C87.9724 54.0293 89.1484 53.936 90.3804 53.936C91.6311 53.936 92.6671 54.104 93.4884 54.44C94.3284 54.7573 94.9911 55.2147 95.4764 55.812C95.9618 56.4093 96.3071 57.1187 96.5124 57.94C96.7178 58.7613 96.8204 59.676 96.8204 60.684V69H92.6484V61.188C92.6484 59.844 92.4711 58.892 92.1164 58.332C91.7618 57.772 91.0991 57.492 90.1284 57.492C89.8298 57.492 89.5124 57.5107 89.1764 57.548C88.8404 57.5667 88.5418 57.5947 88.2804 57.632V69H84.1084V54.776ZM104.153 61.524C104.153 62.812 104.442 63.848 105.021 64.632C105.599 65.416 106.458 65.808 107.597 65.808C107.97 65.808 108.315 65.7987 108.633 65.78C108.95 65.7427 109.211 65.7053 109.417 65.668V58.08C109.155 57.912 108.81 57.772 108.381 57.66C107.97 57.548 107.55 57.492 107.121 57.492C105.142 57.492 104.153 58.836 104.153 61.524ZM113.589 68.524C113.215 68.636 112.786 68.748 112.301 68.86C111.815 68.9533 111.302 69.0373 110.761 69.112C110.238 69.1867 109.697 69.2427 109.137 69.28C108.595 69.336 108.073 69.364 107.569 69.364C106.355 69.364 105.273 69.1867 104.321 68.832C103.369 68.4773 102.566 67.9733 101.913 67.32C101.259 66.648 100.755 65.8453 100.401 64.912C100.065 63.96 99.8967 62.896 99.8967 61.72C99.8967 60.5253 100.046 59.452 100.345 58.5C100.643 57.5293 101.073 56.708 101.633 56.036C102.193 55.364 102.874 54.8507 103.677 54.496C104.498 54.1413 105.431 53.964 106.477 53.964C107.055 53.964 107.569 54.02 108.017 54.132C108.483 54.244 108.95 54.4027 109.417 54.608V47.944L113.589 47.272V68.524ZM121.667 69H117.495V54.272H121.667V69ZM122.059 50.016C122.059 50.7813 121.807 51.388 121.303 51.836C120.818 52.2653 120.239 52.48 119.567 52.48C118.895 52.48 118.307 52.2653 117.803 51.836C117.318 51.388 117.075 50.7813 117.075 50.016C117.075 49.2507 117.318 48.6533 117.803 48.224C118.307 47.776 118.895 47.552 119.567 47.552C120.239 47.552 120.818 47.776 121.303 48.224C121.807 48.6533 122.059 49.2507 122.059 50.016ZM125.589 54.776C126.298 54.5707 127.213 54.384 128.333 54.216C129.453 54.0293 130.629 53.936 131.861 53.936C133.112 53.936 134.148 54.104 134.969 54.44C135.809 54.7573 136.472 55.2147 136.957 55.812C137.442 56.4093 137.788 57.1187 137.993 57.94C138.198 58.7613 138.301 59.676 138.301 60.684V69H134.129V61.188C134.129 59.844 133.952 58.892 133.597 58.332C133.242 57.772 132.58 57.492 131.609 57.492C131.31 57.492 130.993 57.5107 130.657 57.548C130.321 57.5667 130.022 57.5947 129.761 57.632V69H125.589V54.776ZM145.633 61.16C145.633 63.4933 146.576 64.66 148.461 64.66C148.891 64.66 149.292 64.604 149.665 64.492C150.039 64.38 150.356 64.2493 150.617 64.1V57.436C150.412 57.3987 150.169 57.3707 149.889 57.352C149.609 57.3147 149.283 57.296 148.909 57.296C147.808 57.296 146.987 57.66 146.445 58.388C145.904 59.116 145.633 60.04 145.633 61.16ZM154.789 67.152C154.789 69.56 154.173 71.3427 152.941 72.5C151.728 73.676 149.843 74.264 147.285 74.264C146.389 74.264 145.493 74.18 144.597 74.012C143.701 73.8627 142.871 73.6573 142.105 73.396L142.833 69.896C143.487 70.1573 144.168 70.3627 144.877 70.512C145.605 70.6613 146.427 70.736 147.341 70.736C148.536 70.736 149.376 70.4747 149.861 69.952C150.365 69.4293 150.617 68.7573 150.617 67.936V67.404C150.169 67.6093 149.703 67.768 149.217 67.88C148.751 67.9733 148.237 68.02 147.677 68.02C145.643 68.02 144.084 67.4227 143.001 66.228C141.919 65.0147 141.377 63.3253 141.377 61.16C141.377 60.0773 141.545 59.0973 141.881 58.22C142.217 57.324 142.703 56.5587 143.337 55.924C143.991 55.2893 144.784 54.804 145.717 54.468C146.651 54.1133 147.705 53.936 148.881 53.936C149.385 53.936 149.899 53.964 150.421 54.02C150.963 54.0573 151.495 54.1133 152.017 54.188C152.54 54.2627 153.035 54.356 153.501 54.468C153.987 54.5613 154.416 54.664 154.789 54.776V67.152Z" fill="white"/>
</svg>
